<svg width="119" height="122" viewBox="0 0 119 122" fill="none" xmlns="http://www.w3.org/2000/svg">
<g clip-path="url(#clip0_3057_621)">
<mask id="path-1-inside-1_3057_621" fill="white">
<path d="M8.36176 48.8732H7.77176V31.4649L25.1915 21.458L25.4865 21.9613L8.36176 31.8201V48.8732Z"/>
</mask>
<path d="M8.36176 48.8732H7.77176V31.4649L25.1915 21.458L25.4865 21.9613L8.36176 31.8201V48.8732Z" fill="#75171E"/>
<path d="M8.36176 48.8732V49.8732H9.36176V48.8732H8.36176ZM7.77176 48.8732H6.77176V49.8732H7.77176V48.8732ZM7.77176 31.4649L7.27364 30.5977L6.77176 30.8861V31.4649H7.77176ZM25.1915 21.458L26.0542 20.9523L25.553 20.0971L24.6934 20.5909L25.1915 21.458ZM25.4865 21.9613L25.9854 22.828L26.8589 22.3251L26.3492 21.4556L25.4865 21.9613ZM8.36176 31.8201L7.86283 30.9535L7.36176 31.242V31.8201H8.36176ZM8.36176 47.8732H7.77176V49.8732H8.36176V47.8732ZM8.77176 48.8732V31.4649H6.77176V48.8732H8.77176ZM8.26987 32.332L25.6896 22.3251L24.6934 20.5909L7.27364 30.5977L8.26987 32.332ZM24.3288 21.9637L24.6238 22.467L26.3492 21.4556L26.0542 20.9523L24.3288 21.9637ZM24.9876 21.0947L7.86283 30.9535L8.86069 32.6868L25.9854 22.828L24.9876 21.0947ZM7.36176 31.8201V48.8732H9.36176V31.8201H7.36176Z" fill="#75171E" mask="url(#path-1-inside-1_3057_621)"/>
<path d="M8.36176 48.874H7.77176V51.509H8.36176V48.874Z" fill="#75171E"/>
<mask id="path-4-inside-2_3057_621" fill="white">
<path d="M23.864 100.284L7.77176 91.0326V70.9893H8.36176V90.6773L24.159 99.7812L23.864 100.284Z"/>
</mask>
<path d="M23.864 100.284L7.77176 91.0326V70.9893H8.36176V90.6773L24.159 99.7812L23.864 100.284Z" fill="#75171E"/>
<path d="M23.864 100.284L23.3656 101.151L24.2253 101.646L24.7267 100.79L23.864 100.284ZM7.77176 91.0326H6.77176V91.6111L7.27333 91.8995L7.77176 91.0326ZM7.77176 70.9893V69.9893H6.77176V70.9893H7.77176ZM8.36176 70.9893H9.36176V69.9893H8.36176V70.9893ZM8.36176 90.6773H7.36176V91.2552L7.86245 91.5437L8.36176 90.6773ZM24.159 99.7812L25.0217 100.287L25.5311 99.4177L24.6583 98.9147L24.159 99.7812ZM24.3624 99.4175L8.27018 90.1656L7.27333 91.8995L23.3656 101.151L24.3624 99.4175ZM8.77176 91.0326V70.9893H6.77176V91.0326H8.77176ZM7.77176 71.9893H8.36176V69.9893H7.77176V71.9893ZM7.36176 70.9893V90.6773H9.36176V70.9893H7.36176ZM7.86245 91.5437L23.6597 100.648L24.6583 98.9147L8.86107 89.8109L7.86245 91.5437ZM23.2963 99.2755L23.0013 99.7788L24.7267 100.79L25.0217 100.287L23.2963 99.2755Z" fill="#75171E" mask="url(#path-4-inside-2_3057_621)"/>
<path d="M24.1429 99.7763L23.8496 100.29L25.1677 101.048L25.461 100.534L24.1429 99.7763Z" fill="#75171E"/>
<mask id="path-7-inside-3_3057_621" fill="white">
<path d="M59.2935 120.801L41.8885 110.779L42.1835 110.276L59.2935 120.12L77.3475 109.743L77.6425 110.246L59.2935 120.801Z"/>
</mask>
<path d="M59.2935 120.801L41.8885 110.779L42.1835 110.276L59.2935 120.12L77.3475 109.743L77.6425 110.246L59.2935 120.801Z" fill="#75171E"/>
<path d="M59.2935 120.801L58.7945 121.668L59.2933 121.955L59.7921 121.668L59.2935 120.801ZM41.8885 110.779L41.0258 110.274L40.5162 111.143L41.3895 111.646L41.8885 110.779ZM42.1835 110.276L42.6822 109.409L41.8224 108.915L41.3208 109.77L42.1835 110.276ZM59.2935 120.12L58.7948 120.987L59.2933 121.274L59.7918 120.987L59.2935 120.12ZM77.3475 109.743L78.2102 109.237L77.7089 108.382L76.8492 108.876L77.3475 109.743ZM77.6425 110.246L78.1411 111.113L79.0151 110.611L78.5052 109.741L77.6425 110.246ZM59.7925 119.934L42.3875 109.913L41.3895 111.646L58.7945 121.668L59.7925 119.934ZM42.7512 111.285L43.0462 110.782L41.3208 109.77L41.0258 110.274L42.7512 111.285ZM41.6848 111.143L58.7948 120.987L59.7922 119.253L42.6822 109.409L41.6848 111.143ZM59.7918 120.987L77.8458 110.61L76.8492 108.876L58.7952 119.253L59.7918 120.987ZM76.4848 110.249L76.7798 110.752L78.5052 109.741L78.2102 109.237L76.4848 110.249ZM77.1439 109.38L58.7949 119.934L59.7921 121.668L78.1411 111.113L77.1439 109.38Z" fill="#75171E" mask="url(#path-7-inside-3_3057_621)"/>
<mask id="path-9-inside-4_3057_621" fill="white">
<path d="M93.8822 101.04L93.5872 100.537L110.697 90.6778V72.8105H111.287V91.0331L111.14 91.1071L93.8822 101.04Z"/>
</mask>
<path d="M93.8822 101.04L93.5872 100.537L110.697 90.6778V72.8105H111.287V91.0331L111.14 91.1071L93.8822 101.04Z" fill="#75171E"/>
<path d="M93.8822 101.04L93.0195 101.546L93.5212 102.402L94.3811 101.907L93.8822 101.04ZM93.5872 100.537L93.088 99.6702L92.2151 100.173L92.7245 101.042L93.5872 100.537ZM110.697 90.6778L111.197 91.5443L111.697 91.2557V90.6778H110.697ZM110.697 72.8105V71.8105H109.697V72.8105H110.697ZM111.287 72.8105H112.287V71.8105H111.287V72.8105ZM111.287 91.0331L111.736 91.9269L112.287 91.6501V91.0331H111.287ZM111.14 91.1071L110.691 90.2133L110.666 90.2261L110.641 90.2404L111.14 91.1071ZM94.745 100.534L94.45 100.031L92.7245 101.042L93.0195 101.546L94.745 100.534ZM94.0865 101.403L111.197 91.5443L110.198 89.8113L93.088 99.6702L94.0865 101.403ZM111.697 90.6778V72.8105H109.697V90.6778H111.697ZM110.697 73.8105H111.287V71.8105H110.697V73.8105ZM110.287 72.8105V91.0331H112.287V72.8105H110.287ZM110.839 90.1393L110.691 90.2133L111.588 92.0009L111.736 91.9269L110.839 90.1393ZM110.641 90.2404L93.3834 100.173L94.3811 101.907L111.639 91.9738L110.641 90.2404Z" fill="#75171E" mask="url(#path-9-inside-4_3057_621)"/>
<mask id="path-11-inside-5_3057_621" fill="white">
<path d="M111.287 51.5082H110.697V31.8201L93.5872 21.9613L93.8822 21.458L111.287 31.4649V51.5082Z"/>
</mask>
<path d="M111.287 51.5082H110.697V31.8201L93.5872 21.9613L93.8822 21.458L111.287 31.4649V51.5082Z" fill="#75171E"/>
<path d="M111.287 51.5082V52.5082H112.287V51.5082H111.287ZM110.697 51.5082H109.697V52.5082H110.697V51.5082ZM110.697 31.8201H111.697V31.2422L111.197 30.9537L110.697 31.8201ZM93.5872 21.9613L92.7245 21.4556L92.2151 22.3248L93.088 22.8278L93.5872 21.9613ZM93.8822 21.458L94.3807 20.5911L93.521 20.0968L93.0195 20.9523L93.8822 21.458ZM111.287 31.4649H112.287V30.8863L111.786 30.5979L111.287 31.4649ZM111.287 50.5082H110.697V52.5082H111.287V50.5082ZM111.697 51.5082V31.8201H109.697V51.5082H111.697ZM111.197 30.9537L94.0865 21.0949L93.088 22.8278L110.198 32.6866L111.197 30.9537ZM94.45 22.467L94.745 21.9637L93.0195 20.9523L92.7245 21.4556L94.45 22.467ZM93.3838 22.3249L110.789 32.3318L111.786 30.5979L94.3807 20.5911L93.3838 22.3249ZM110.287 31.4649V51.5082H112.287V31.4649H110.287Z" fill="#75171E" mask="url(#path-11-inside-5_3057_621)"/>
<mask id="path-13-inside-6_3057_621" fill="white">
<path d="M77.8195 12.7542L59.7655 2.37723L41.7115 12.7542L41.4165 12.2509L59.7655 1.69629L78.1145 12.2509L77.8195 12.7542Z"/>
</mask>
<path d="M77.8195 12.7542L59.7655 2.37723L41.7115 12.7542L41.4165 12.2509L59.7655 1.69629L78.1145 12.2509L77.8195 12.7542Z" fill="#75171E"/>
<path d="M77.8195 12.7542L77.3212 13.6211L78.1808 14.1153L78.6822 13.2598L77.8195 12.7542ZM59.7655 2.37723L60.2638 1.51024L59.7655 1.22382L59.2672 1.51024L59.7655 2.37723ZM41.7115 12.7542L40.8488 13.2598L41.3502 14.1153L42.2098 13.6211L41.7115 12.7542ZM41.4165 12.2509L40.9179 11.384L40.044 11.8867L40.5538 12.7565L41.4165 12.2509ZM59.7655 1.69629L60.2641 0.829462L59.7655 0.542656L59.2669 0.829462L59.7655 1.69629ZM78.1145 12.2509L78.9772 12.7565L79.487 11.8867L78.6131 11.384L78.1145 12.2509ZM78.3178 11.8872L60.2638 1.51024L59.2672 3.24422L77.3212 13.6211L78.3178 11.8872ZM59.2672 1.51024L41.2132 11.8872L42.2098 13.6211L60.2638 3.24422L59.2672 1.51024ZM42.5742 12.2485L42.2792 11.7452L40.5538 12.7565L40.8488 13.2598L42.5742 12.2485ZM41.9151 13.1177L60.2641 2.56312L59.2669 0.829462L40.9179 11.384L41.9151 13.1177ZM59.2669 2.56312L77.6159 13.1177L78.6131 11.384L60.2641 0.829462L59.2669 2.56312ZM77.2518 11.7452L76.9568 12.2485L78.6822 13.2598L78.9772 12.7565L77.2518 11.7452Z" fill="#75171E" mask="url(#path-13-inside-6_3057_621)"/>
<mask id="path-15-inside-7_3057_621" fill="white">
<path d="M95.195 100.284L94.9 99.7812L110.697 90.6773V70.9893H111.287V91.0326L111.14 91.1066L95.195 100.284Z"/>
</mask>
<path d="M95.195 100.284L94.9 99.7812L110.697 90.6773V70.9893H111.287V91.0326L111.14 91.1066L95.195 100.284Z" fill="#75171E"/>
<path d="M95.195 100.284L94.3323 100.79L94.834 101.646L95.6939 101.151L95.195 100.284ZM94.9 99.7812L94.4007 98.9147L93.5279 99.4177L94.0373 100.287L94.9 99.7812ZM110.697 90.6773L111.197 91.5437L111.697 91.2552V90.6773H110.697ZM110.697 70.9893V69.9893H109.697V70.9893H110.697ZM111.287 70.9893H112.287V69.9893H111.287V70.9893ZM111.287 91.0326L111.736 91.9264L112.287 91.6496V91.0326H111.287ZM111.14 91.1066L110.691 90.2128L110.666 90.2256L110.641 90.2399L111.14 91.1066ZM96.0578 99.7788L95.7628 99.2755L94.0373 100.287L94.3323 100.79L96.0578 99.7788ZM95.3993 100.648L111.197 91.5437L110.198 89.8109L94.4007 98.9147L95.3993 100.648ZM111.697 90.6773V70.9893H109.697V90.6773H111.697ZM110.697 71.9893H111.287V69.9893H110.697V71.9893ZM110.287 70.9893V91.0326H112.287V70.9893H110.287ZM110.839 90.1388L110.691 90.2128L111.588 92.0004L111.736 91.9264L110.839 90.1388ZM110.641 90.2399L94.6962 99.4178L95.6939 101.151L111.639 91.9733L110.641 90.2399Z" fill="#75171E" mask="url(#path-15-inside-7_3057_621)"/>
<path d="M118.53 61.2494L89.0295 112.157H30.0295L0.52951 61.2494L5.63301 52.4268L30.0295 10.3418H89.0295L118.53 61.2494Z" fill="#B33636"/>
<path d="M66.7128 86.2215H57.9955C57.2875 86.2215 56.8303 85.6442 56.8303 84.9188V56.0381C56.8303 48.7846 54.426 47.0379 49.0865 47.0379C46.4168 47.0379 43.4963 47.1711 41.4755 47.4228V84.9336C41.505 85.6294 40.9593 86.2067 40.2808 86.2215C40.266 86.2215 40.2513 86.2215 40.2365 86.2215H31.593C30.8998 86.2215 30.354 85.659 30.354 84.9632C30.354 84.9484 30.354 84.9336 30.354 84.9188V42.6266C30.354 39.7104 31.1358 38.9998 33.6728 38.615C37.1243 38.0969 44.5288 37.5195 47.8475 37.5195C60.4588 37.5195 67.937 41.013 67.937 56.0529V84.9484C67.9665 85.6442 67.4208 86.2215 66.7423 86.2363C66.7423 86.2215 66.7275 86.2215 66.7128 86.2215Z" fill="white"/>
<path d="M87.3922 44.8919H78.9405C78.2325 44.8919 77.6425 44.3146 77.6425 43.5892V37.5644C77.6425 36.8538 78.2325 36.2617 78.9405 36.2617H87.3922C88.1002 36.2617 88.6902 36.839 88.6902 37.5644V43.5892C88.6902 44.3146 88.115 44.8919 87.3922 44.8919ZM87.1267 86.222H79.1912C78.4832 86.222 77.8932 85.6446 77.8932 84.9193V50.3986C77.8932 49.6881 78.4832 49.0959 79.1912 49.0959H87.1267C87.8347 49.0959 88.4247 49.6733 88.4247 50.3986V84.9341C88.4247 85.6446 87.8495 86.222 87.1267 86.222Z" fill="white"/>
<path d="M44.0125 108.19C43.629 108.278 43.2308 108.338 42.8473 108.338C41.9475 108.338 41.4608 107.819 41.4608 106.931V106.502C41.4608 105.614 41.9475 105.096 42.8473 105.096C43.2455 105.096 43.629 105.155 44.0125 105.244C44.16 105.273 44.1895 105.318 44.1895 105.407V108.042C44.1895 108.116 44.1748 108.16 44.0125 108.19ZM43.3045 105.851C43.157 105.836 43.0095 105.821 42.8473 105.821C42.449 105.821 42.3458 106.102 42.3458 106.487V106.916C42.3458 107.301 42.449 107.597 42.8473 107.597C42.9948 107.597 43.157 107.583 43.3045 107.568V105.851Z" fill="white"/>
<path d="M51.004 106.99H49.234V107.005C49.234 107.316 49.3667 107.597 49.8092 107.597C50.1632 107.597 50.65 107.568 50.8712 107.553H50.886C50.945 107.553 50.9892 107.583 50.9892 107.642V108.056C50.9892 108.145 50.9745 108.175 50.8712 108.204C50.5025 108.293 50.119 108.338 49.7355 108.338C49.0717 108.338 48.349 107.982 48.349 106.931V106.546C48.349 105.658 48.8652 105.096 49.7502 105.096C50.65 105.096 51.1073 105.717 51.1073 106.546V106.872C51.122 106.931 51.0777 106.99 51.004 106.99ZM50.2517 106.413C50.2517 105.999 50.06 105.806 49.7502 105.806C49.4405 105.806 49.234 106.013 49.234 106.413V106.443H50.237V106.413H50.2517Z" fill="white"/>
<path d="M56.9335 105.791H56.1812V108.16C56.1812 108.219 56.1222 108.278 56.0632 108.278H55.3995C55.3405 108.278 55.2815 108.219 55.2815 108.16V104.903C55.2815 104.148 55.7977 103.971 56.3582 103.971C56.5647 103.971 56.7565 103.986 56.963 104.015C57.022 104.03 57.0515 104.045 57.0515 104.074V104.533C57.0515 104.592 57.0367 104.622 56.9777 104.622H56.4025C56.2255 104.622 56.196 104.726 56.196 104.888V105.111H56.9482C57.0072 105.111 57.0662 105.155 57.0662 105.229V105.673C57.0367 105.747 56.9925 105.791 56.9335 105.791Z" fill="white"/>
<path d="M63.6595 106.99H61.9043V107.005C61.9043 107.316 62.037 107.597 62.4795 107.597C62.8335 107.597 63.3203 107.568 63.5415 107.553H63.5563C63.6153 107.553 63.6595 107.583 63.6595 107.642V108.056C63.6595 108.145 63.6448 108.175 63.5415 108.204C63.1728 108.293 62.7893 108.338 62.4058 108.338C61.742 108.338 61.0193 107.982 61.0193 106.931V106.546C61.0193 105.658 61.5355 105.096 62.4205 105.096C63.3203 105.096 63.7775 105.717 63.7775 106.546V106.872C63.7775 106.931 63.7333 106.99 63.6595 106.99ZM62.9073 106.413C62.9073 105.999 62.7155 105.806 62.4058 105.806C62.096 105.806 61.8895 106.013 61.8895 106.413V106.443H62.8925V106.413H62.9073Z" fill="white"/>
<path d="M69.3235 108.338H69.235C68.881 108.338 67.9075 108.234 67.9075 106.947V105.259C67.9075 105.2 67.9518 105.141 68.0108 105.141H68.6892C68.7482 105.141 68.8073 105.2 68.8073 105.259V106.947C68.8073 107.465 68.9695 107.583 69.235 107.583H69.3088C69.5743 107.583 69.7365 107.465 69.7365 106.947V105.259C69.7365 105.2 69.7808 105.141 69.8545 105.141H70.533C70.592 105.141 70.6363 105.2 70.6363 105.259V106.947C70.6363 108.234 69.6628 108.338 69.3235 108.338Z" fill="white"/>
<path d="M76.2118 108.338C76.0643 108.338 75.902 108.323 75.7545 108.293V109.241C75.7545 109.3 75.7103 109.344 75.6365 109.344H74.9728C74.9138 109.344 74.8548 109.3 74.8548 109.241V105.377C74.8548 105.288 74.8695 105.259 75.0318 105.214C75.4153 105.126 75.8135 105.066 76.2118 105.066C77.1115 105.066 77.5983 105.585 77.5983 106.473V106.902C77.5983 107.79 77.141 108.338 76.2118 108.338ZM76.6985 106.487C76.6985 106.103 76.5953 105.821 76.2118 105.821C76.0643 105.821 75.902 105.821 75.7545 105.851V107.568C75.902 107.583 76.0495 107.598 76.2118 107.598C76.61 107.598 76.6985 107.302 76.6985 106.917V106.487Z" fill="white"/>
<path d="M33.0385 106.754H37.493L36.844 106.739H33.1712L6.81299 61.2496L11.3707 53.3596L33.1712 15.7451H85.8877L112.261 61.2496L85.8877 106.739H81.448" stroke="white" stroke-miterlimit="10"/>
</g>
<defs>
<clipPath id="clip0_3057_621">
<rect width="118" height="121" fill="white" transform="translate(0.5 0.630859)"/>
</clipPath>
</defs>
</svg>
