<svg width="118" height="121" viewBox="0 0 118 121" fill="none" xmlns="http://www.w3.org/2000/svg">
<g clip-path="url(#clip0_3057_753)">
<mask id="path-1-inside-1_3057_753" fill="white">
<path d="M7.86173 48.2424H7.27173V30.834L24.6915 20.8271L24.9865 21.3305L7.86173 31.1893V48.2424Z"/>
</mask>
<path d="M7.86173 48.2424H7.27173V30.834L24.6915 20.8271L24.9865 21.3305L7.86173 31.1893V48.2424Z" fill="#75171E"/>
<path d="M7.86173 48.2424V49.2424H8.86173V48.2424H7.86173ZM7.27173 48.2424H6.27173V49.2424H7.27173V48.2424ZM7.27173 30.834L6.77361 29.9669L6.27173 30.2552V30.834H7.27173ZM24.6915 20.8271L25.5542 20.3215L25.0529 19.4663L24.1934 19.96L24.6915 20.8271ZM24.9865 21.3305L25.4854 22.1971L26.3588 21.6943L25.8492 20.8248L24.9865 21.3305ZM7.86173 31.1893L7.3628 30.3226L6.86173 30.6111V31.1893H7.86173ZM7.86173 47.2424H7.27173V49.2424H7.86173V47.2424ZM8.27173 48.2424V30.834H6.27173V48.2424H8.27173ZM7.76984 31.7011L25.1896 21.6943L24.1934 19.96L6.77361 29.9669L7.76984 31.7011ZM23.8287 21.3328L24.1237 21.8361L25.8492 20.8248L25.5542 20.3215L23.8287 21.3328ZM24.4875 20.4638L7.3628 30.3226L8.36066 32.0559L25.4854 22.1971L24.4875 20.4638ZM6.86173 31.1893V48.2424H8.86173V31.1893H6.86173Z" fill="#75171E" mask="url(#path-1-inside-1_3057_753)"/>
<path d="M7.86173 48.2432H7.27173V50.8781H7.86173V48.2432Z" fill="#75171E"/>
<mask id="path-4-inside-2_3057_753" fill="white">
<path d="M23.364 99.6536L7.27173 90.4017V70.3584H7.86173V90.0464L23.659 99.1503L23.364 99.6536Z"/>
</mask>
<path d="M23.364 99.6536L7.27173 90.4017V70.3584H7.86173V90.0464L23.659 99.1503L23.364 99.6536Z" fill="#75171E"/>
<path d="M23.364 99.6536L22.8656 100.521L23.7253 101.015L24.2267 100.159L23.364 99.6536ZM7.27173 90.4017H6.27173V90.9803L6.7733 91.2686L7.27173 90.4017ZM7.27173 70.3584V69.3584H6.27173V70.3584H7.27173ZM7.86173 70.3584H8.86173V69.3584H7.86173V70.3584ZM7.86173 90.0464H6.86173V90.6243L7.36241 90.9129L7.86173 90.0464ZM23.659 99.1503L24.5217 99.656L25.0311 98.7869L24.1583 98.2839L23.659 99.1503ZM23.8624 98.7867L7.77015 89.5348L6.7733 91.2686L22.8656 100.521L23.8624 98.7867ZM8.27173 90.4017V70.3584H6.27173V90.4017H8.27173ZM7.27173 71.3584H7.86173V69.3584H7.27173V71.3584ZM6.86173 70.3584V90.0464H8.86173V70.3584H6.86173ZM7.36241 90.9129L23.1597 100.017L24.1583 98.2839L8.36104 89.18L7.36241 90.9129ZM22.7962 98.6446L22.5012 99.1479L24.2267 100.159L24.5217 99.656L22.7962 98.6446Z" fill="#75171E" mask="url(#path-4-inside-2_3057_753)"/>
<path d="M23.643 99.1455L23.3496 99.6592L24.6677 100.417L24.9611 99.9035L23.643 99.1455Z" fill="#75171E"/>
<mask id="path-7-inside-3_3057_753" fill="white">
<path d="M58.7934 120.17L41.3884 110.149L41.6834 109.645L58.7934 119.489L76.8474 109.112L77.1424 109.616L58.7934 120.17Z"/>
</mask>
<path d="M58.7934 120.17L41.3884 110.149L41.6834 109.645L58.7934 119.489L76.8474 109.112L77.1424 109.616L58.7934 120.17Z" fill="#75171E"/>
<path d="M58.7934 120.17L58.2944 121.037L58.7932 121.324L59.292 121.037L58.7934 120.17ZM41.3884 110.149L40.5257 109.643L40.0161 110.512L40.8894 111.015L41.3884 110.149ZM41.6834 109.645L42.1821 108.778L41.3223 108.284L40.8207 109.14L41.6834 109.645ZM58.7934 119.489L58.2947 120.356L58.7932 120.643L59.2917 120.356L58.7934 119.489ZM76.8474 109.112L77.7102 108.607L77.2088 107.751L76.3491 108.245L76.8474 109.112ZM77.1424 109.616L77.641 110.482L78.515 109.98L78.0052 109.11L77.1424 109.616ZM59.2924 119.304L41.8874 109.282L40.8894 111.015L58.2944 121.037L59.2924 119.304ZM42.2512 110.654L42.5462 110.151L40.8207 109.14L40.5257 109.643L42.2512 110.654ZM41.1847 110.512L58.2947 120.356L59.2921 118.622L42.1821 108.778L41.1847 110.512ZM59.2917 120.356L77.3457 109.979L76.3491 108.245L58.2951 118.622L59.2917 120.356ZM75.9847 109.618L76.2797 110.121L78.0052 109.11L77.7102 108.607L75.9847 109.618ZM76.6438 108.749L58.2948 119.303L59.292 121.037L77.641 110.482L76.6438 108.749Z" fill="#75171E" mask="url(#path-7-inside-3_3057_753)"/>
<mask id="path-9-inside-4_3057_753" fill="white">
<path d="M93.3823 100.409L93.0873 99.9058L110.197 90.0469V72.1797H110.787V90.4022L110.64 90.4762L93.3823 100.409Z"/>
</mask>
<path d="M93.3823 100.409L93.0873 99.9058L110.197 90.0469V72.1797H110.787V90.4022L110.64 90.4762L93.3823 100.409Z" fill="#75171E"/>
<path d="M93.3823 100.409L92.5196 100.915L93.0212 101.771L93.8811 101.276L93.3823 100.409ZM93.0873 99.9058L92.588 99.0393L91.7151 99.5423L92.2246 100.411L93.0873 99.9058ZM110.197 90.0469L110.697 90.9134L111.197 90.6249V90.0469H110.197ZM110.197 72.1797V71.1797H109.197V72.1797H110.197ZM110.787 72.1797H111.787V71.1797H110.787V72.1797ZM110.787 90.4022L111.236 91.296L111.787 91.0193V90.4022H110.787ZM110.64 90.4762L110.191 89.5825L110.166 89.5953L110.141 89.6095L110.64 90.4762ZM94.245 99.9034L93.95 99.4001L92.2246 100.411L92.5196 100.915L94.245 99.9034ZM93.5865 100.772L110.697 90.9134L109.698 89.1805L92.588 99.0393L93.5865 100.772ZM111.197 90.0469V72.1797H109.197V90.0469H111.197ZM110.197 73.1797H110.787V71.1797H110.197V73.1797ZM109.787 72.1797V90.4022H111.787V72.1797H109.787ZM110.339 89.5084L110.191 89.5825L111.088 91.37L111.236 91.296L110.339 89.5084ZM110.141 89.6095L92.8834 99.5424L93.8811 101.276L111.139 91.3429L110.141 89.6095Z" fill="#75171E" mask="url(#path-9-inside-4_3057_753)"/>
<mask id="path-11-inside-5_3057_753" fill="white">
<path d="M110.787 50.8773H110.197V31.1893L93.0873 21.3305L93.3823 20.8271L110.787 30.834V50.8773Z"/>
</mask>
<path d="M110.787 50.8773H110.197V31.1893L93.0873 21.3305L93.3823 20.8271L110.787 30.834V50.8773Z" fill="#75171E"/>
<path d="M110.787 50.8773V51.8773H111.787V50.8773H110.787ZM110.197 50.8773H109.197V51.8773H110.197V50.8773ZM110.197 31.1893H111.197V30.6113L110.697 30.3228L110.197 31.1893ZM93.0873 21.3305L92.2246 20.8248L91.7151 21.6939L92.588 22.1969L93.0873 21.3305ZM93.3823 20.8271L93.8807 19.9602L93.021 19.4659L92.5196 20.3215L93.3823 20.8271ZM110.787 30.834H111.787V30.2554L111.286 29.9671L110.787 30.834ZM110.787 49.8773H110.197V51.8773H110.787V49.8773ZM111.197 50.8773V31.1893H109.197V50.8773H111.197ZM110.697 30.3228L93.5865 20.464L92.588 22.1969L109.698 32.0557L110.697 30.3228ZM93.95 21.8361L94.245 21.3328L92.5196 20.3215L92.2246 20.8248L93.95 21.8361ZM92.8838 21.6941L110.289 31.7009L111.286 29.9671L93.8807 19.9602L92.8838 21.6941ZM109.787 30.834V50.8773H111.787V30.834H109.787Z" fill="#75171E" mask="url(#path-11-inside-5_3057_753)"/>
<mask id="path-13-inside-6_3057_753" fill="white">
<path d="M77.3195 12.1233L59.2655 1.74637L41.2115 12.1233L40.9165 11.62L59.2655 1.06543L77.6145 11.62L77.3195 12.1233Z"/>
</mask>
<path d="M77.3195 12.1233L59.2655 1.74637L41.2115 12.1233L40.9165 11.62L59.2655 1.06543L77.6145 11.62L77.3195 12.1233Z" fill="#75171E"/>
<path d="M77.3195 12.1233L76.8212 12.9903L77.6808 13.4844L78.1822 12.629L77.3195 12.1233ZM59.2655 1.74637L59.7638 0.879377L59.2655 0.592956L58.7672 0.879377L59.2655 1.74637ZM41.2115 12.1233L40.3488 12.629L40.8502 13.4844L41.7098 12.9903L41.2115 12.1233ZM40.9165 11.62L40.4179 10.7532L39.544 11.2559L40.0538 12.1257L40.9165 11.62ZM59.2655 1.06543L59.7641 0.198603L59.2655 -0.0882031L58.7669 0.198603L59.2655 1.06543ZM77.6145 11.62L78.4772 12.1257L78.9871 11.2559L78.1131 10.7532L77.6145 11.62ZM77.8178 11.2563L59.7638 0.879377L58.7672 2.61336L76.8212 12.9903L77.8178 11.2563ZM58.7672 0.879377L40.7132 11.2563L41.7098 12.9903L59.7638 2.61336L58.7672 0.879377ZM42.0742 11.6176L41.7792 11.1143L40.0538 12.1257L40.3488 12.629L42.0742 11.6176ZM41.4151 12.4868L59.7641 1.93226L58.7669 0.198603L40.4179 10.7532L41.4151 12.4868ZM58.7669 1.93226L77.1159 12.4868L78.1131 10.7532L59.7641 0.198603L58.7669 1.93226ZM76.7518 11.1143L76.4568 11.6176L78.1822 12.629L78.4772 12.1257L76.7518 11.1143Z" fill="#75171E" mask="url(#path-13-inside-6_3057_753)"/>
<mask id="path-15-inside-7_3057_753" fill="white">
<path d="M94.695 99.6536L94.4 99.1503L110.197 90.0464V70.3584H110.787V90.4017L110.64 90.4757L94.695 99.6536Z"/>
</mask>
<path d="M94.695 99.6536L94.4 99.1503L110.197 90.0464V70.3584H110.787V90.4017L110.64 90.4757L94.695 99.6536Z" fill="#75171E"/>
<path d="M94.695 99.6536L93.8323 100.159L94.334 101.015L95.1939 100.52L94.695 99.6536ZM94.4 99.1503L93.9007 98.2839L93.0279 98.7869L93.5373 99.656L94.4 99.1503ZM110.197 90.0464L110.697 90.9129L111.197 90.6243V90.0464H110.197ZM110.197 70.3584V69.3584H109.197V70.3584H110.197ZM110.787 70.3584H111.787V69.3584H110.787V70.3584ZM110.787 90.4017L111.236 91.2955L111.787 91.0187V90.4017H110.787ZM110.64 90.4757L110.191 89.5819L110.166 89.5948L110.141 89.609L110.64 90.4757ZM95.5578 99.1479L95.2628 98.6446L93.5373 99.656L93.8323 100.159L95.5578 99.1479ZM94.8993 100.017L110.697 90.9129L109.698 89.18L93.9007 98.2839L94.8993 100.017ZM111.197 90.0464V70.3584H109.197V90.0464H111.197ZM110.197 71.3584H110.787V69.3584H110.197V71.3584ZM109.787 70.3584V90.4017H111.787V70.3584H109.787ZM110.339 89.5079L110.191 89.5819L111.088 91.3695L111.236 91.2955L110.339 89.5079ZM110.141 89.609L94.1962 98.7869L95.1939 100.52L111.139 91.3424L110.141 89.609Z" fill="#75171E" mask="url(#path-15-inside-7_3057_753)"/>
<path d="M118.03 60.6186L88.5295 111.526H29.5295L0.029541 60.6186L5.13304 51.796L29.5295 9.71094H88.5295L118.03 60.6186Z" fill="#B33636"/>
<path d="M66.2128 85.5906H57.4955C56.7875 85.5906 56.3303 85.0133 56.3303 84.288V55.4073C56.3303 48.1538 53.926 46.407 48.5865 46.407C45.9168 46.407 42.9963 46.5403 40.9755 46.7919V84.3028C41.005 84.9985 40.4593 85.5758 39.7808 85.5906C39.766 85.5906 39.7513 85.5906 39.7365 85.5906H31.093C30.3998 85.5906 29.854 85.0281 29.854 84.3324C29.854 84.3176 29.854 84.3028 29.854 84.288V41.9957C29.854 39.0795 30.6358 38.369 33.1728 37.9841C36.6243 37.466 44.0288 36.8887 47.3475 36.8887C59.9588 36.8887 67.437 40.3822 67.437 55.4221V84.3176C67.4665 85.0133 66.9208 85.5906 66.2423 85.6054C66.2423 85.5906 66.2275 85.5906 66.2128 85.5906Z" fill="white"/>
<path d="M86.8922 44.261H78.4405C77.7325 44.261 77.1425 43.6837 77.1425 42.9584V36.9335C77.1425 36.223 77.7325 35.6309 78.4405 35.6309H86.8922C87.6002 35.6309 88.1902 36.2082 88.1902 36.9335V42.9584C88.1902 43.6837 87.615 44.261 86.8922 44.261ZM86.6267 85.5911H78.6912C77.9832 85.5911 77.3932 85.0138 77.3932 84.2884V49.7678C77.3932 49.0572 77.9832 48.4651 78.6912 48.4651H86.6267C87.3347 48.4651 87.9247 49.0424 87.9247 49.7678V84.3032C87.9247 85.0138 87.3495 85.5911 86.6267 85.5911Z" fill="white"/>
<path d="M43.5124 107.559C43.1289 107.647 42.7307 107.707 42.3472 107.707C41.4474 107.707 40.9607 107.189 40.9607 106.3V105.871C40.9607 104.983 41.4474 104.465 42.3472 104.465C42.7454 104.465 43.1289 104.524 43.5124 104.613C43.6599 104.642 43.6894 104.687 43.6894 104.776V107.411C43.6894 107.485 43.6747 107.529 43.5124 107.559ZM42.8044 105.22C42.6569 105.205 42.5094 105.19 42.3472 105.19C41.9489 105.19 41.8457 105.471 41.8457 105.856V106.286C41.8457 106.67 41.9489 106.967 42.3472 106.967C42.4947 106.967 42.6569 106.952 42.8044 106.937V105.22Z" fill="white"/>
<path d="M50.504 106.36H48.734V106.374C48.734 106.685 48.8667 106.967 49.3092 106.967C49.6632 106.967 50.15 106.937 50.3712 106.922H50.386C50.445 106.922 50.4892 106.952 50.4892 107.011V107.425C50.4892 107.514 50.4745 107.544 50.3712 107.573C50.0025 107.662 49.619 107.707 49.2355 107.707C48.5717 107.707 47.849 107.351 47.849 106.3V105.916C47.849 105.027 48.3652 104.465 49.2502 104.465C50.15 104.465 50.6073 105.087 50.6073 105.916V106.241C50.622 106.3 50.5777 106.36 50.504 106.36ZM49.7517 105.782C49.7517 105.368 49.56 105.175 49.2502 105.175C48.9405 105.175 48.734 105.383 48.734 105.782V105.812H49.737V105.782H49.7517Z" fill="white"/>
<path d="M56.4335 105.161H55.6812V107.529C55.6812 107.588 55.6222 107.648 55.5632 107.648H54.8995C54.8405 107.648 54.7815 107.588 54.7815 107.529V104.272C54.7815 103.517 55.2977 103.34 55.8582 103.34C56.0647 103.34 56.2565 103.355 56.463 103.384C56.522 103.399 56.5515 103.414 56.5515 103.443V103.902C56.5515 103.962 56.5367 103.991 56.4777 103.991H55.9025C55.7255 103.991 55.696 104.095 55.696 104.258V104.48H56.4482C56.5072 104.48 56.5662 104.524 56.5662 104.598V105.042C56.5367 105.116 56.4925 105.161 56.4335 105.161Z" fill="white"/>
<path d="M63.1595 106.36H61.4043V106.374C61.4043 106.685 61.537 106.967 61.9795 106.967C62.3335 106.967 62.8203 106.937 63.0415 106.922H63.0563C63.1153 106.922 63.1595 106.952 63.1595 107.011V107.425C63.1595 107.514 63.1448 107.544 63.0415 107.573C62.6728 107.662 62.2893 107.707 61.9058 107.707C61.242 107.707 60.5193 107.351 60.5193 106.3V105.916C60.5193 105.027 61.0355 104.465 61.9205 104.465C62.8203 104.465 63.2775 105.087 63.2775 105.916V106.241C63.2775 106.3 63.2333 106.36 63.1595 106.36ZM62.4073 105.782C62.4073 105.368 62.2155 105.175 61.9058 105.175C61.596 105.175 61.3895 105.383 61.3895 105.782V105.812H62.3925V105.782H62.4073Z" fill="white"/>
<path d="M68.8235 107.707H68.735C68.381 107.707 67.4075 107.604 67.4075 106.316V104.628C67.4075 104.569 67.4517 104.51 67.5107 104.51H68.1892C68.2482 104.51 68.3072 104.569 68.3072 104.628V106.316C68.3072 106.834 68.4695 106.952 68.735 106.952H68.8087C69.0742 106.952 69.2365 106.834 69.2365 106.316V104.628C69.2365 104.569 69.2807 104.51 69.3545 104.51H70.033C70.092 104.51 70.1362 104.569 70.1362 104.628V106.316C70.1362 107.604 69.1627 107.707 68.8235 107.707Z" fill="white"/>
<path d="M75.7117 107.707C75.5642 107.707 75.402 107.692 75.2545 107.663V108.61C75.2545 108.669 75.2102 108.714 75.1365 108.714H74.4727C74.4137 108.714 74.3547 108.669 74.3547 108.61V104.746C74.3547 104.658 74.3695 104.628 74.5317 104.584C74.9152 104.495 75.3135 104.436 75.7117 104.436C76.6115 104.436 77.0982 104.954 77.0982 105.842V106.271C77.0982 107.159 76.641 107.707 75.7117 107.707ZM76.1985 105.857C76.1985 105.472 76.0952 105.19 75.7117 105.19C75.5642 105.19 75.402 105.19 75.2545 105.22V106.937C75.402 106.952 75.5495 106.967 75.7117 106.967C76.11 106.967 76.1985 106.671 76.1985 106.286V105.857Z" fill="white"/>
<path d="M32.5385 106.123H36.993L36.344 106.109H32.6712L6.31299 60.6188L10.8707 52.7288L32.6712 15.1143H85.3877L111.761 60.6188L85.3877 106.109H80.948" stroke="white" stroke-miterlimit="10"/>
</g>
<defs>
<clipPath id="clip0_3057_753">
<rect width="118" height="121" fill="white"/>
</clipPath>
</defs>
</svg>
