<svg width="119" height="122" viewBox="0 0 119 122" fill="none" xmlns="http://www.w3.org/2000/svg">
<g clip-path="url(#clip0_3220_747)">
<mask id="path-1-inside-1_3220_747" fill="white">
<path d="M8.36148 48.759H7.77148V31.3506L25.1912 21.3438L25.4862 21.8471L8.36148 31.7059V48.759Z"/>
</mask>
<path d="M8.36148 48.759H7.77148V31.3506L25.1912 21.3438L25.4862 21.8471L8.36148 31.7059V48.759Z" fill="#75171E"/>
<path d="M8.36148 48.759V49.759H9.36148V48.759H8.36148ZM7.77148 48.759H6.77148V49.759H7.77148V48.759ZM7.77148 31.3506L7.27337 30.4835L6.77148 30.7718V31.3506H7.77148ZM25.1912 21.3438L26.054 20.8381L25.5527 19.9829L24.6931 20.4766L25.1912 21.3438ZM25.4862 21.8471L25.9852 22.7137L26.8586 22.2109L26.349 21.3414L25.4862 21.8471ZM8.36148 31.7059L7.86255 30.8392L7.36148 31.1277V31.7059H8.36148ZM8.36148 47.759H7.77148V49.759H8.36148V47.759ZM8.77148 48.759V31.3506H6.77148V48.759H8.77148ZM8.2696 32.2177L25.6893 22.2109L24.6931 20.4766L7.27337 30.4835L8.2696 32.2177ZM24.3285 21.8494L24.6235 22.3527L26.349 21.3414L26.054 20.8381L24.3285 21.8494ZM24.9873 20.9804L7.86255 30.8392L8.86042 32.5725L25.9852 22.7137L24.9873 20.9804ZM7.36148 31.7059V48.759H9.36148V31.7059H7.36148Z" fill="#75171E" mask="url(#path-1-inside-1_3220_747)"/>
<path d="M8.36148 48.7598H7.77148V51.3947H8.36148V48.7598Z" fill="#75171E"/>
<mask id="path-4-inside-2_3220_747" fill="white">
<path d="M23.8637 100.17L7.77148 90.9183V70.875H8.36148V90.563L24.1587 99.6669L23.8637 100.17Z"/>
</mask>
<path d="M23.8637 100.17L7.77148 90.9183V70.875H8.36148V90.563L24.1587 99.6669L23.8637 100.17Z" fill="#75171E"/>
<path d="M23.8637 100.17L23.3653 101.037L24.225 101.531L24.7265 100.676L23.8637 100.17ZM7.77148 90.9183H6.77148V91.4969L7.27306 91.7852L7.77148 90.9183ZM7.77148 70.875V69.875H6.77148V70.875H7.77148ZM8.36148 70.875H9.36148V69.875H8.36148V70.875ZM8.36148 90.563H7.36148V91.1409L7.86217 91.4295L8.36148 90.563ZM24.1587 99.6669L25.0215 100.173L25.5309 99.3035L24.658 98.8005L24.1587 99.6669ZM24.3622 99.3033L8.26991 90.0514L7.27306 91.7852L23.3653 101.037L24.3622 99.3033ZM8.77148 90.9183V70.875H6.77148V90.9183H8.77148ZM7.77148 71.875H8.36148V69.875H7.77148V71.875ZM7.36148 70.875V90.563H9.36148V70.875H7.36148ZM7.86217 91.4295L23.6594 100.533L24.658 98.8005L8.8608 89.6966L7.86217 91.4295ZM23.296 99.1612L23.001 99.6645L24.7265 100.676L25.0215 100.173L23.296 99.1612Z" fill="#75171E" mask="url(#path-4-inside-2_3220_747)"/>
<path d="M24.143 99.6621L23.8496 100.176L25.1677 100.934L25.4611 100.42L24.143 99.6621Z" fill="#75171E"/>
<mask id="path-7-inside-3_3220_747" fill="white">
<path d="M59.2937 120.687L41.8887 110.665L42.1837 110.162L59.2937 120.006L77.3477 109.629L77.6427 110.132L59.2937 120.687Z"/>
</mask>
<path d="M59.2937 120.687L41.8887 110.665L42.1837 110.162L59.2937 120.006L77.3477 109.629L77.6427 110.132L59.2937 120.687Z" fill="#75171E"/>
<path d="M59.2937 120.687L58.7947 121.553L59.2934 121.841L59.7923 121.554L59.2937 120.687ZM41.8887 110.665L41.0259 110.159L40.5163 111.029L41.3897 111.532L41.8887 110.665ZM42.1837 110.162L42.6824 109.295L41.8226 108.8L41.3209 109.656L42.1837 110.162ZM59.2937 120.006L58.795 120.873L59.2934 121.159L59.792 120.873L59.2937 120.006ZM77.3477 109.629L78.2104 109.123L77.709 108.268L76.8493 108.762L77.3477 109.629ZM77.6427 110.132L78.1413 110.999L79.0152 110.496L78.5054 109.627L77.6427 110.132ZM59.7927 119.82L42.3877 109.799L41.3897 111.532L58.7947 121.553L59.7927 119.82ZM42.7514 111.171L43.0464 110.667L41.3209 109.656L41.0259 110.159L42.7514 111.171ZM41.685 111.029L58.795 120.873L59.7924 119.139L42.6824 109.295L41.685 111.029ZM59.792 120.873L77.846 110.496L76.8493 108.762L58.7953 119.139L59.792 120.873ZM76.4849 110.135L76.7799 110.638L78.5054 109.627L78.2104 109.123L76.4849 110.135ZM77.1441 109.265L58.7951 119.82L59.7923 121.554L78.1413 110.999L77.1441 109.265Z" fill="#75171E" mask="url(#path-7-inside-3_3220_747)"/>
<mask id="path-9-inside-4_3220_747" fill="white">
<path d="M93.8829 100.925L93.5879 100.421L110.698 90.5626V72.6953H111.288V90.9178L111.14 90.9919L93.8829 100.925Z"/>
</mask>
<path d="M93.8829 100.925L93.5879 100.421L110.698 90.5626V72.6953H111.288V90.9178L111.14 90.9919L93.8829 100.925Z" fill="#75171E"/>
<path d="M93.8829 100.925L93.0202 101.43L93.5219 102.286L94.3817 101.791L93.8829 100.925ZM93.5879 100.421L93.0886 99.5549L92.2157 100.058L92.7252 100.927L93.5879 100.421ZM110.698 90.5626L111.197 91.429L111.698 91.1405V90.5626H110.698ZM110.698 72.6953V71.6953H109.698V72.6953H110.698ZM111.288 72.6953H112.288V71.6953H111.288V72.6953ZM111.288 90.9178L111.736 91.8116L112.288 91.5349V90.9178H111.288ZM111.14 90.9919L110.692 90.0981L110.666 90.1109L110.642 90.1252L111.14 90.9919ZM94.7456 100.419L94.4506 99.9157L92.7252 100.927L93.0202 101.43L94.7456 100.419ZM94.0871 101.288L111.197 91.429L110.199 89.6961L93.0886 99.5549L94.0871 101.288ZM111.698 90.5626V72.6953H109.698V90.5626H111.698ZM110.698 73.6953H111.288V71.6953H110.698V73.6953ZM110.288 72.6953V90.9178H112.288V72.6953H110.288ZM110.839 90.0241L110.692 90.0981L111.589 91.8856L111.736 91.8116L110.839 90.0241ZM110.642 90.1252L93.3841 100.058L94.3817 101.791L111.639 91.8586L110.642 90.1252Z" fill="#75171E" mask="url(#path-9-inside-4_3220_747)"/>
<mask id="path-11-inside-5_3220_747" fill="white">
<path d="M111.288 51.3939H110.698V31.7059L93.5879 21.8471L93.8829 21.3438L111.288 31.3506V51.3939Z"/>
</mask>
<path d="M111.288 51.3939H110.698V31.7059L93.5879 21.8471L93.8829 21.3438L111.288 31.3506V51.3939Z" fill="#75171E"/>
<path d="M111.288 51.3939V52.3939H112.288V51.3939H111.288ZM110.698 51.3939H109.698V52.3939H110.698V51.3939ZM110.698 31.7059H111.698V31.1279L111.197 30.8394L110.698 31.7059ZM93.5879 21.8471L92.7252 21.3414L92.2157 22.2105L93.0886 22.7135L93.5879 21.8471ZM93.8829 21.3438L94.3813 20.4768L93.5216 19.9825L93.0202 20.8381L93.8829 21.3438ZM111.288 31.3506H112.288V30.772L111.786 30.4837L111.288 31.3506ZM111.288 50.3939H110.698V52.3939H111.288V50.3939ZM111.698 51.3939V31.7059H109.698V51.3939H111.698ZM111.197 30.8394L94.0871 20.9806L93.0886 22.7135L110.199 32.5723L111.197 30.8394ZM94.4506 22.3527L94.7456 21.8494L93.0202 20.8381L92.7252 21.3414L94.4506 22.3527ZM93.3845 22.2107L110.789 32.2175L111.786 30.4837L94.3813 20.4768L93.3845 22.2107ZM110.288 31.3506V51.3939H112.288V31.3506H110.288Z" fill="#75171E" mask="url(#path-11-inside-5_3220_747)"/>
<mask id="path-13-inside-6_3220_747" fill="white">
<path d="M77.819 12.6399L59.765 2.26297L41.711 12.6399L41.416 12.1366L59.765 1.58203L78.114 12.1366L77.819 12.6399Z"/>
</mask>
<path d="M77.819 12.6399L59.765 2.26297L41.711 12.6399L41.416 12.1366L59.765 1.58203L78.114 12.1366L77.819 12.6399Z" fill="#75171E"/>
<path d="M77.819 12.6399L77.3207 13.5069L78.1804 14.001L78.6817 13.1456L77.819 12.6399ZM59.765 2.26297L60.2633 1.39598L59.765 1.10956L59.2667 1.39598L59.765 2.26297ZM41.711 12.6399L40.8483 13.1456L41.3497 14.001L42.2093 13.5069L41.711 12.6399ZM41.416 12.1366L40.9174 11.2698L40.0435 11.7725L40.5533 12.6423L41.416 12.1366ZM59.765 1.58203L60.2636 0.715204L59.765 0.428398L59.2664 0.715204L59.765 1.58203ZM78.114 12.1366L78.9767 12.6423L79.4866 11.7725L78.6126 11.2698L78.114 12.1366ZM78.3173 11.7729L60.2633 1.39598L59.2667 3.12996L77.3207 13.5069L78.3173 11.7729ZM59.2667 1.39598L41.2127 11.7729L42.2093 13.5069L60.2633 3.12996L59.2667 1.39598ZM42.5737 12.1342L42.2787 11.6309L40.5533 12.6423L40.8483 13.1456L42.5737 12.1342ZM41.9146 13.0034L60.2636 2.44886L59.2664 0.715204L40.9174 11.2698L41.9146 13.0034ZM59.2664 2.44886L77.6154 13.0034L78.6126 11.2698L60.2636 0.715204L59.2664 2.44886ZM77.2513 11.6309L76.9563 12.1342L78.6817 13.1456L78.9767 12.6423L77.2513 11.6309Z" fill="#75171E" mask="url(#path-13-inside-6_3220_747)"/>
<mask id="path-15-inside-7_3220_747" fill="white">
<path d="M95.1954 100.17L94.9004 99.6669L110.698 90.563V70.875H111.288V90.9183L111.14 90.9923L95.1954 100.17Z"/>
</mask>
<path d="M95.1954 100.17L94.9004 99.6669L110.698 90.563V70.875H111.288V90.9183L111.14 90.9923L95.1954 100.17Z" fill="#75171E"/>
<path d="M95.1954 100.17L94.3327 100.676L94.8344 101.532L95.6943 101.037L95.1954 100.17ZM94.9004 99.6669L94.4011 98.8005L93.5283 99.3035L94.0377 100.173L94.9004 99.6669ZM110.698 90.563L111.197 91.4295L111.698 91.1409V90.563H110.698ZM110.698 70.875V69.875H109.698V70.875H110.698ZM111.288 70.875H112.288V69.875H111.288V70.875ZM111.288 90.9183L111.736 91.8121L112.288 91.5354V90.9183H111.288ZM111.14 90.9923L110.692 90.0985L110.666 90.1114L110.641 90.1256L111.14 90.9923ZM96.0581 99.6645L95.7631 99.1612L94.0377 100.173L94.3327 100.676L96.0581 99.6645ZM95.3997 100.533L111.197 91.4295L110.198 89.6966L94.4011 98.8005L95.3997 100.533ZM111.698 90.563V70.875H109.698V90.563H111.698ZM110.698 71.875H111.288V69.875H110.698V71.875ZM110.288 70.875V90.9183H112.288V70.875H110.288ZM110.839 90.0245L110.692 90.0985L111.589 91.8861L111.736 91.8121L110.839 90.0245ZM110.641 90.1256L94.6965 99.3035L95.6943 101.037L111.639 91.859L110.641 90.1256Z" fill="#75171E" mask="url(#path-15-inside-7_3220_747)"/>
<path d="M118.529 61.1352L89.0293 112.043H30.0293L0.529297 61.1352L5.6328 52.3126L30.0293 10.2275H89.0293L118.529 61.1352Z" fill="#B33636"/>
<path d="M66.7123 86.1082H57.995C57.287 86.1082 56.8298 85.5309 56.8298 84.8056V55.9248C56.8298 48.6714 54.4255 46.9246 49.086 46.9246C46.4163 46.9246 43.4958 47.0578 41.475 47.3095V84.8204C41.5045 85.5161 40.9588 86.0934 40.2803 86.1082C40.2655 86.1082 40.2508 86.1082 40.236 86.1082H31.5925C30.8993 86.1082 30.3535 85.5457 30.3535 84.85C30.3535 84.8352 30.3535 84.8204 30.3535 84.8056V42.5133C30.3535 39.5971 31.1353 38.8866 33.6723 38.5017C37.1238 37.9836 44.5283 37.4062 47.847 37.4062C60.4583 37.4062 67.9365 40.8998 67.9365 55.9396V84.8352C67.966 85.5309 67.4203 86.1082 66.7418 86.123C66.7418 86.1082 66.727 86.1082 66.7123 86.1082Z" fill="white"/>
<path d="M87.3923 44.7776H78.9406C78.2326 44.7776 77.6426 44.2003 77.6426 43.475V37.4501C77.6426 36.7396 78.2326 36.1475 78.9406 36.1475H87.3923C88.1003 36.1475 88.6903 36.7248 88.6903 37.4501V43.475C88.6903 44.2003 88.1151 44.7776 87.3923 44.7776ZM87.1268 86.1077H79.1913C78.4833 86.1077 77.8933 85.5304 77.8933 84.805V50.2844C77.8933 49.5738 78.4833 48.9817 79.1913 48.9817H87.1268C87.8348 48.9817 88.4248 49.559 88.4248 50.2844V84.8198C88.4248 85.5304 87.8496 86.1077 87.1268 86.1077Z" fill="white"/>
<path d="M44.0127 108.075C43.6292 108.164 43.2309 108.223 42.8474 108.223C41.9477 108.223 41.4609 107.705 41.4609 106.817V106.388C41.4609 105.5 41.9477 104.981 42.8474 104.981C43.2457 104.981 43.6292 105.041 44.0127 105.129C44.1602 105.159 44.1897 105.203 44.1897 105.292V107.927C44.1897 108.001 44.1749 108.046 44.0127 108.075ZM43.3047 105.736C43.1572 105.722 43.0097 105.707 42.8474 105.707C42.4492 105.707 42.3459 105.988 42.3459 106.373V106.802C42.3459 107.187 42.4492 107.483 42.8474 107.483C42.9949 107.483 43.1572 107.468 43.3047 107.454V105.736Z" fill="white"/>
<path d="M51.0046 106.876H49.2346V106.891C49.2346 107.202 49.3674 107.483 49.8099 107.483C50.1639 107.483 50.6506 107.454 50.8719 107.439H50.8866C50.9456 107.439 50.9899 107.468 50.9899 107.528V107.942C50.9899 108.031 50.9751 108.06 50.8719 108.09C50.5031 108.179 50.1196 108.223 49.7361 108.223C49.0724 108.223 48.3496 107.868 48.3496 106.817V106.432C48.3496 105.544 48.8659 104.981 49.7509 104.981C50.6506 104.981 51.1079 105.603 51.1079 106.432V106.758C51.1226 106.817 51.0784 106.876 51.0046 106.876ZM50.2524 106.299C50.2524 105.884 50.0606 105.692 49.7509 105.692C49.4411 105.692 49.2346 105.899 49.2346 106.299V106.329H50.2376V106.299H50.2524Z" fill="white"/>
<path d="M56.9333 105.677H56.181V108.046C56.181 108.105 56.122 108.164 56.063 108.164H55.3993C55.3403 108.164 55.2812 108.105 55.2812 108.046V104.789C55.2812 104.034 55.7975 103.856 56.358 103.856C56.5645 103.856 56.7562 103.871 56.9627 103.901C57.0217 103.916 57.0512 103.93 57.0512 103.96V104.419C57.0512 104.478 57.0365 104.508 56.9775 104.508H56.4023C56.2253 104.508 56.1958 104.611 56.1958 104.774V104.996H56.948C57.007 104.996 57.066 105.041 57.066 105.115V105.559C57.0365 105.633 56.9923 105.677 56.9333 105.677Z" fill="white"/>
<path d="M63.6598 106.876H61.9045V106.891C61.9045 107.202 62.0373 107.483 62.4798 107.483C62.8338 107.483 63.3205 107.454 63.5418 107.439H63.5565C63.6155 107.439 63.6598 107.468 63.6598 107.528V107.942C63.6598 108.031 63.645 108.06 63.5418 108.09C63.173 108.179 62.7895 108.223 62.406 108.223C61.7423 108.223 61.0195 107.868 61.0195 106.817V106.432C61.0195 105.544 61.5358 104.981 62.4208 104.981C63.3205 104.981 63.7778 105.603 63.7778 106.432V106.758C63.7778 106.817 63.7335 106.876 63.6598 106.876ZM62.9075 106.299C62.9075 105.884 62.7158 105.692 62.406 105.692C62.0963 105.692 61.8898 105.899 61.8898 106.299V106.329H62.8928V106.299H62.9075Z" fill="white"/>
<path d="M69.3242 108.224H69.2357C68.8817 108.224 67.9082 108.12 67.9082 106.832V105.145C67.9082 105.086 67.9525 105.026 68.0115 105.026H68.69C68.749 105.026 68.808 105.086 68.808 105.145V106.832C68.808 107.35 68.9702 107.469 69.2357 107.469H69.3095C69.575 107.469 69.7372 107.35 69.7372 106.832V105.145C69.7372 105.086 69.7815 105.026 69.8552 105.026H70.5337C70.5927 105.026 70.637 105.086 70.637 105.145V106.832C70.637 108.12 69.6635 108.224 69.3242 108.224Z" fill="white"/>
<path d="M76.2125 108.224C76.065 108.224 75.9027 108.209 75.7552 108.179V109.127C75.7552 109.186 75.711 109.23 75.6372 109.23H74.9735C74.9145 109.23 74.8555 109.186 74.8555 109.127V105.263C74.8555 105.174 74.8702 105.145 75.0325 105.1C75.416 105.011 75.8142 104.952 76.2125 104.952C77.1122 104.952 77.599 105.47 77.599 106.358V106.788C77.599 107.676 77.1417 108.224 76.2125 108.224ZM76.6992 106.373C76.6992 105.988 76.596 105.707 76.2125 105.707C76.065 105.707 75.9027 105.707 75.7552 105.737V107.454C75.9027 107.469 76.0502 107.483 76.2125 107.483C76.6107 107.483 76.6992 107.187 76.6992 106.803V106.373Z" fill="white"/>
<path d="M33.038 106.64H37.4925L36.8435 106.625H33.1707L6.8125 61.1354L11.3702 53.2454L33.1707 15.6309H85.8873L112.26 61.1354L85.8873 106.625H81.4475" stroke="white" stroke-miterlimit="10"/>
</g>
<defs>
<clipPath id="clip0_3220_747">
<rect width="118" height="121" fill="white" transform="translate(0.5 0.516602)"/>
</clipPath>
</defs>
</svg>
