<svg width="119" height="122" viewBox="0 0 119 122" fill="none" xmlns="http://www.w3.org/2000/svg">
<g clip-path="url(#clip0_3109_156)">
<mask id="path-1-inside-1_3109_156" fill="white">
<path d="M8.36148 48.5578H7.77148V31.1494L25.1912 21.1426L25.4862 21.6459L8.36148 31.5047V48.5578Z"/>
</mask>
<path d="M8.36148 48.5578H7.77148V31.1494L25.1912 21.1426L25.4862 21.6459L8.36148 31.5047V48.5578Z" fill="#75171E"/>
<path d="M8.36148 48.5578V49.5578H9.36148V48.5578H8.36148ZM7.77148 48.5578H6.77148V49.5578H7.77148V48.5578ZM7.77148 31.1494L7.27337 30.2823L6.77148 30.5706V31.1494H7.77148ZM25.1912 21.1426L26.054 20.6369L25.5527 19.7817L24.6931 20.2755L25.1912 21.1426ZM25.4862 21.6459L25.9852 22.5125L26.8586 22.0097L26.349 21.1402L25.4862 21.6459ZM8.36148 31.5047L7.86255 30.6381L7.36148 30.9265V31.5047H8.36148ZM8.36148 47.5578H7.77148V49.5578H8.36148V47.5578ZM8.77148 48.5578V31.1494H6.77148V48.5578H8.77148ZM8.2696 32.0165L25.6893 22.0097L24.6931 20.2755L7.27337 30.2823L8.2696 32.0165ZM24.3285 21.6482L24.6235 22.1516L26.349 21.1402L26.054 20.6369L24.3285 21.6482ZM24.9873 20.7792L7.86255 30.6381L8.86042 32.3713L25.9852 22.5125L24.9873 20.7792ZM7.36148 31.5047V48.5578H9.36148V31.5047H7.36148Z" fill="#75171E" mask="url(#path-1-inside-1_3109_156)"/>
<path d="M8.36148 48.5586H7.77148V51.1935H8.36148V48.5586Z" fill="#75171E"/>
<mask id="path-4-inside-2_3109_156" fill="white">
<path d="M23.8637 99.969L7.77148 90.7171V70.6738H8.36148V90.3619L24.1587 99.4657L23.8637 99.969Z"/>
</mask>
<path d="M23.8637 99.969L7.77148 90.7171V70.6738H8.36148V90.3619L24.1587 99.4657L23.8637 99.969Z" fill="#75171E"/>
<path d="M23.8637 99.969L23.3653 100.836L24.225 101.33L24.7265 100.475L23.8637 99.969ZM7.77148 90.7171H6.77148V91.2957L7.27306 91.5841L7.77148 90.7171ZM7.77148 70.6738V69.6738H6.77148V70.6738H7.77148ZM8.36148 70.6738H9.36148V69.6738H8.36148V70.6738ZM8.36148 90.3619H7.36148V90.9397L7.86217 91.2283L8.36148 90.3619ZM24.1587 99.4657L25.0215 99.9714L25.5309 99.1023L24.658 98.5993L24.1587 99.4657ZM24.3622 99.1021L8.26991 89.8502L7.27306 91.5841L23.3653 100.836L24.3622 99.1021ZM8.77148 90.7171V70.6738H6.77148V90.7171H8.77148ZM7.77148 71.6738H8.36148V69.6738H7.77148V71.6738ZM7.36148 70.6738V90.3619H9.36148V70.6738H7.36148ZM7.86217 91.2283L23.6594 100.332L24.658 98.5993L8.8608 89.4954L7.86217 91.2283ZM23.296 98.9601L23.001 99.4634L24.7265 100.475L25.0215 99.9714L23.296 98.9601Z" fill="#75171E" mask="url(#path-4-inside-2_3109_156)"/>
<path d="M24.143 99.4609L23.8496 99.9746L25.1677 100.733L25.4611 100.219L24.143 99.4609Z" fill="#75171E"/>
<mask id="path-7-inside-3_3109_156" fill="white">
<path d="M59.2937 120.486L41.8887 110.464L42.1837 109.961L59.2937 119.805L77.3477 109.428L77.6427 109.931L59.2937 120.486Z"/>
</mask>
<path d="M59.2937 120.486L41.8887 110.464L42.1837 109.961L59.2937 119.805L77.3477 109.428L77.6427 109.931L59.2937 120.486Z" fill="#75171E"/>
<path d="M59.2937 120.486L58.7947 121.352L59.2934 121.639L59.7923 121.352L59.2937 120.486ZM41.8887 110.464L41.0259 109.958L40.5163 110.828L41.3897 111.331L41.8887 110.464ZM42.1837 109.961L42.6824 109.094L41.8226 108.599L41.3209 109.455L42.1837 109.961ZM59.2937 119.805L58.795 120.671L59.2934 120.958L59.792 120.672L59.2937 119.805ZM77.3477 109.428L78.2104 108.922L77.709 108.067L76.8493 108.561L77.3477 109.428ZM77.6427 109.931L78.1413 110.798L79.0152 110.295L78.5054 109.425L77.6427 109.931ZM59.7927 119.619L42.3877 109.597L41.3897 111.331L58.7947 121.352L59.7927 119.619ZM42.7514 110.97L43.0464 110.466L41.3209 109.455L41.0259 109.958L42.7514 110.97ZM41.685 110.827L58.795 120.671L59.7924 118.938L42.6824 109.094L41.685 110.827ZM59.792 120.672L77.846 110.295L76.8493 108.561L58.7953 118.938L59.792 120.672ZM76.4849 109.933L76.7799 110.437L78.5054 109.425L78.2104 108.922L76.4849 109.933ZM77.1441 109.064L58.7951 119.619L59.7923 121.352L78.1413 110.798L77.1441 109.064Z" fill="#75171E" mask="url(#path-7-inside-3_3109_156)"/>
<mask id="path-9-inside-4_3109_156" fill="white">
<path d="M93.8829 100.724L93.5879 100.22L110.698 90.3614V72.4941H111.288V90.7167L111.14 90.7907L93.8829 100.724Z"/>
</mask>
<path d="M93.8829 100.724L93.5879 100.22L110.698 90.3614V72.4941H111.288V90.7167L111.14 90.7907L93.8829 100.724Z" fill="#75171E"/>
<path d="M93.8829 100.724L93.0202 101.229L93.5219 102.085L94.3817 101.59L93.8829 100.724ZM93.5879 100.22L93.0886 99.3538L92.2157 99.8567L92.7252 100.726L93.5879 100.22ZM110.698 90.3614L111.197 91.2279L111.698 90.9393V90.3614H110.698ZM110.698 72.4941V71.4941H109.698V72.4941H110.698ZM111.288 72.4941H112.288V71.4941H111.288V72.4941ZM111.288 90.7167L111.736 91.6105L112.288 91.3337V90.7167H111.288ZM111.14 90.7907L110.692 89.8969L110.666 89.9097L110.642 89.924L111.14 90.7907ZM94.7456 100.218L94.4506 99.7146L92.7252 100.726L93.0202 101.229L94.7456 100.218ZM94.0871 101.087L111.197 91.2279L110.199 89.4949L93.0886 99.3538L94.0871 101.087ZM111.698 90.3614V72.4941H109.698V90.3614H111.698ZM110.698 73.4941H111.288V71.4941H110.698V73.4941ZM110.288 72.4941V90.7167H112.288V72.4941H110.288ZM110.839 89.8229L110.692 89.8969L111.589 91.6845L111.736 91.6105L110.839 89.8229ZM110.642 89.924L93.3841 99.8568L94.3817 101.59L111.639 91.6574L110.642 89.924Z" fill="#75171E" mask="url(#path-9-inside-4_3109_156)"/>
<mask id="path-11-inside-5_3109_156" fill="white">
<path d="M111.288 51.1927H110.698V31.5047L93.5879 21.6459L93.8829 21.1426L111.288 31.1494V51.1927Z"/>
</mask>
<path d="M111.288 51.1927H110.698V31.5047L93.5879 21.6459L93.8829 21.1426L111.288 31.1494V51.1927Z" fill="#75171E"/>
<path d="M111.288 51.1927V52.1927H112.288V51.1927H111.288ZM110.698 51.1927H109.698V52.1927H110.698V51.1927ZM110.698 31.5047H111.698V30.9268L111.197 30.6382L110.698 31.5047ZM93.5879 21.6459L92.7252 21.1402L92.2157 22.0094L93.0886 22.5123L93.5879 21.6459ZM93.8829 21.1426L94.3813 20.2756L93.5216 19.7814L93.0202 20.6369L93.8829 21.1426ZM111.288 31.1494H112.288V30.5709L111.786 30.2825L111.288 31.1494ZM111.288 50.1927H110.698V52.1927H111.288V50.1927ZM111.698 51.1927V31.5047H109.698V51.1927H111.698ZM111.197 30.6382L94.0871 20.7794L93.0886 22.5123L110.199 32.3712L111.197 30.6382ZM94.4506 22.1516L94.7456 21.6482L93.0202 20.6369L92.7252 21.1402L94.4506 22.1516ZM93.3845 22.0095L110.789 32.0164L111.786 30.2825L94.3813 20.2756L93.3845 22.0095ZM110.288 31.1494V51.1927H112.288V31.1494H110.288Z" fill="#75171E" mask="url(#path-11-inside-5_3109_156)"/>
<mask id="path-13-inside-6_3109_156" fill="white">
<path d="M77.819 12.4387L59.765 2.0618L41.711 12.4387L41.416 11.9354L59.765 1.38086L78.114 11.9354L77.819 12.4387Z"/>
</mask>
<path d="M77.819 12.4387L59.765 2.0618L41.711 12.4387L41.416 11.9354L59.765 1.38086L78.114 11.9354L77.819 12.4387Z" fill="#75171E"/>
<path d="M77.819 12.4387L77.3207 13.3057L78.1804 13.7998L78.6817 12.9444L77.819 12.4387ZM59.765 2.0618L60.2633 1.19481L59.765 0.908386L59.2667 1.19481L59.765 2.0618ZM41.711 12.4387L40.8483 12.9444L41.3497 13.7998L42.2093 13.3057L41.711 12.4387ZM41.416 11.9354L40.9174 11.0686L40.0435 11.5713L40.5533 12.4411L41.416 11.9354ZM59.765 1.38086L60.2636 0.514032L59.765 0.227227L59.2664 0.514032L59.765 1.38086ZM78.114 11.9354L78.9767 12.4411L79.4866 11.5713L78.6126 11.0686L78.114 11.9354ZM78.3173 11.5717L60.2633 1.19481L59.2667 2.92879L77.3207 13.3057L78.3173 11.5717ZM59.2667 1.19481L41.2127 11.5717L42.2093 13.3057L60.2633 2.92879L59.2667 1.19481ZM42.5737 11.9331L42.2787 11.4298L40.5533 12.4411L40.8483 12.9444L42.5737 11.9331ZM41.9146 12.8022L60.2636 2.24769L59.2664 0.514032L40.9174 11.0686L41.9146 12.8022ZM59.2664 2.24769L77.6154 12.8022L78.6126 11.0686L60.2636 0.514032L59.2664 2.24769ZM77.2513 11.4298L76.9563 11.9331L78.6817 12.9444L78.9767 12.4411L77.2513 11.4298Z" fill="#75171E" mask="url(#path-13-inside-6_3109_156)"/>
<mask id="path-15-inside-7_3109_156" fill="white">
<path d="M95.1954 99.969L94.9004 99.4657L110.698 90.3619V70.6738H111.288V90.7171L111.14 90.7912L95.1954 99.969Z"/>
</mask>
<path d="M95.1954 99.969L94.9004 99.4657L110.698 90.3619V70.6738H111.288V90.7171L111.14 90.7912L95.1954 99.969Z" fill="#75171E"/>
<path d="M95.1954 99.969L94.3327 100.475L94.8344 101.331L95.6943 100.836L95.1954 99.969ZM94.9004 99.4657L94.4011 98.5993L93.5283 99.1023L94.0377 99.9714L94.9004 99.4657ZM110.698 90.3619L111.197 91.2283L111.698 90.9397V90.3619H110.698ZM110.698 70.6738V69.6738H109.698V70.6738H110.698ZM111.288 70.6738H112.288V69.6738H111.288V70.6738ZM111.288 90.7171L111.736 91.6109L112.288 91.3342V90.7171H111.288ZM111.14 90.7912L110.692 89.8974L110.666 89.9102L110.641 89.9245L111.14 90.7912ZM96.0581 99.4634L95.7631 98.9601L94.0377 99.9714L94.3327 100.475L96.0581 99.4634ZM95.3997 100.332L111.197 91.2283L110.198 89.4954L94.4011 98.5993L95.3997 100.332ZM111.698 90.3619V70.6738H109.698V90.3619H111.698ZM110.698 71.6738H111.288V69.6738H110.698V71.6738ZM110.288 70.6738V90.7171H112.288V70.6738H110.288ZM110.839 89.8234L110.692 89.8974L111.589 91.6849L111.736 91.6109L110.839 89.8234ZM110.641 89.9245L94.6965 99.1024L95.6943 100.836L111.639 91.6578L110.641 89.9245Z" fill="#75171E" mask="url(#path-15-inside-7_3109_156)"/>
<path d="M118.529 60.934L89.0293 111.842H30.0293L0.529297 60.934L5.6328 52.1114L30.0293 10.0264H89.0293L118.529 60.934Z" fill="#B33636"/>
<path d="M66.7123 85.9071H57.995C57.287 85.9071 56.8298 85.3297 56.8298 84.6044V55.7237C56.8298 48.4702 54.4255 46.7234 49.086 46.7234C46.4163 46.7234 43.4958 46.8567 41.475 47.1083V84.6192C41.5045 85.3149 40.9588 85.8923 40.2803 85.9071C40.2655 85.9071 40.2508 85.9071 40.236 85.9071H31.5925C30.8993 85.9071 30.3535 85.3445 30.3535 84.6488C30.3535 84.634 30.3535 84.6192 30.3535 84.6044V42.3121C30.3535 39.3959 31.1353 38.6854 33.6723 38.3005C37.1238 37.7824 44.5283 37.2051 47.847 37.2051C60.4583 37.2051 67.9365 40.6986 67.9365 55.7385V84.634C67.966 85.3297 67.4203 85.9071 66.7418 85.9219C66.7418 85.9071 66.727 85.9071 66.7123 85.9071Z" fill="white"/>
<path d="M87.3923 44.5765H78.9406C78.2326 44.5765 77.6426 43.9991 77.6426 43.2738V37.249C77.6426 36.5384 78.2326 35.9463 78.9406 35.9463H87.3923C88.1003 35.9463 88.6903 36.5236 88.6903 37.249V43.2738C88.6903 43.9991 88.1151 44.5765 87.3923 44.5765ZM87.1268 85.9065H79.1913C78.4833 85.9065 77.8933 85.3292 77.8933 84.6039V50.0832C77.8933 49.3726 78.4833 48.7805 79.1913 48.7805H87.1268C87.8348 48.7805 88.4248 49.3578 88.4248 50.0832V84.6187C88.4248 85.3292 87.8496 85.9065 87.1268 85.9065Z" fill="white"/>
<path d="M44.0127 107.874C43.6292 107.963 43.2309 108.022 42.8474 108.022C41.9477 108.022 41.4609 107.504 41.4609 106.616V106.187C41.4609 105.298 41.9477 104.78 42.8474 104.78C43.2457 104.78 43.6292 104.839 44.0127 104.928C44.1602 104.958 44.1897 105.002 44.1897 105.091V107.726C44.1897 107.8 44.1749 107.844 44.0127 107.874ZM43.3047 105.535C43.1572 105.52 43.0097 105.506 42.8474 105.506C42.4492 105.506 42.3459 105.787 42.3459 106.172V106.601C42.3459 106.986 42.4492 107.282 42.8474 107.282C42.9949 107.282 43.1572 107.267 43.3047 107.252V105.535Z" fill="white"/>
<path d="M51.0046 106.675H49.2346V106.69C49.2346 107.001 49.3674 107.282 49.8099 107.282C50.1639 107.282 50.6506 107.252 50.8719 107.238H50.8866C50.9456 107.238 50.9899 107.267 50.9899 107.326V107.741C50.9899 107.83 50.9751 107.859 50.8719 107.889C50.5031 107.978 50.1196 108.022 49.7361 108.022C49.0724 108.022 48.3496 107.667 48.3496 106.616V106.231C48.3496 105.343 48.8659 104.78 49.7509 104.78C50.6506 104.78 51.1079 105.402 51.1079 106.231V106.557C51.1226 106.616 51.0784 106.675 51.0046 106.675ZM50.2524 106.098C50.2524 105.683 50.0606 105.491 49.7509 105.491C49.4411 105.491 49.2346 105.698 49.2346 106.098V106.127H50.2376V106.098H50.2524Z" fill="white"/>
<path d="M56.9333 105.476H56.181V107.845C56.181 107.904 56.122 107.963 56.063 107.963H55.3993C55.3403 107.963 55.2812 107.904 55.2812 107.845V104.588C55.2812 103.833 55.7975 103.655 56.358 103.655C56.5645 103.655 56.7562 103.67 56.9627 103.7C57.0217 103.714 57.0512 103.729 57.0512 103.759V104.218C57.0512 104.277 57.0365 104.307 56.9775 104.307H56.4023C56.2253 104.307 56.1958 104.41 56.1958 104.573V104.795H56.948C57.007 104.795 57.066 104.84 57.066 104.914V105.358C57.0365 105.432 56.9923 105.476 56.9333 105.476Z" fill="white"/>
<path d="M63.6598 106.675H61.9045V106.69C61.9045 107.001 62.0373 107.282 62.4798 107.282C62.8338 107.282 63.3205 107.252 63.5418 107.238H63.5565C63.6155 107.238 63.6598 107.267 63.6598 107.326V107.741C63.6598 107.83 63.645 107.859 63.5418 107.889C63.173 107.978 62.7895 108.022 62.406 108.022C61.7423 108.022 61.0195 107.667 61.0195 106.616V106.231C61.0195 105.343 61.5358 104.78 62.4208 104.78C63.3205 104.78 63.7778 105.402 63.7778 106.231V106.557C63.7778 106.616 63.7335 106.675 63.6598 106.675ZM62.9075 106.098C62.9075 105.683 62.7158 105.491 62.406 105.491C62.0963 105.491 61.8898 105.698 61.8898 106.098V106.127H62.8928V106.098H62.9075Z" fill="white"/>
<path d="M69.3242 108.023H69.2357C68.8817 108.023 67.9082 107.919 67.9082 106.631V104.944C67.9082 104.884 67.9525 104.825 68.0115 104.825H68.69C68.749 104.825 68.808 104.884 68.808 104.944V106.631C68.808 107.149 68.9702 107.268 69.2357 107.268H69.3095C69.575 107.268 69.7372 107.149 69.7372 106.631V104.944C69.7372 104.884 69.7815 104.825 69.8552 104.825H70.5337C70.5927 104.825 70.637 104.884 70.637 104.944V106.631C70.637 107.919 69.6635 108.023 69.3242 108.023Z" fill="white"/>
<path d="M76.2125 108.022C76.065 108.022 75.9027 108.008 75.7552 107.978V108.925C75.7552 108.985 75.711 109.029 75.6372 109.029H74.9735C74.9145 109.029 74.8555 108.985 74.8555 108.925V105.062C74.8555 104.973 74.8702 104.943 75.0325 104.899C75.416 104.81 75.8142 104.751 76.2125 104.751C77.1122 104.751 77.599 105.269 77.599 106.157V106.587C77.599 107.475 77.1417 108.022 76.2125 108.022ZM76.6992 106.172C76.6992 105.787 76.596 105.506 76.2125 105.506C76.065 105.506 75.9027 105.506 75.7552 105.536V107.253C75.9027 107.267 76.0502 107.282 76.2125 107.282C76.6107 107.282 76.6992 106.986 76.6992 106.601V106.172Z" fill="white"/>
<path d="M33.038 106.439H37.4925L36.8435 106.424H33.1707L6.8125 60.9342L11.3702 53.0442L33.1707 15.4297H85.8873L112.26 60.9342L85.8873 106.424H81.4475" stroke="white" stroke-miterlimit="10"/>
</g>
<defs>
<clipPath id="clip0_3109_156">
<rect width="118" height="121" fill="white" transform="translate(0.5 0.31543)"/>
</clipPath>
</defs>
</svg>
