<svg width="51" height="70" viewBox="0 0 51 70" fill="none" xmlns="http://www.w3.org/2000/svg">
<path d="M36.9927 69.2548L27.4289 59.7208C26.9802 59.2736 26.7276 58.6665 26.7266 58.033C26.7256 57.3995 26.9763 56.7916 27.4236 56.3429C27.8708 55.8943 28.478 55.6417 29.1114 55.6407C29.7449 55.6397 30.3529 55.8904 30.8015 56.3376L36.2828 61.8047L36.2769 58.018C36.2588 46.4788 30.5854 44.1243 23.3952 41.1426C15.99 38.0717 7.59338 34.5876 7.57031 19.8673L7.56984 19.5689C5.31859 18.9914 3.35526 17.6127 2.04783 15.6912C0.74041 13.7696 0.178671 11.4372 0.467908 9.13118C0.757146 6.82511 1.8775 4.70369 3.61898 3.16456C5.36045 1.62544 7.60347 0.774286 9.92761 0.770643C12.2517 0.767 14.4974 1.61112 16.2437 3.14478C17.99 4.67843 19.117 6.79633 19.4135 9.10148C19.7099 11.4066 19.1555 13.7408 17.8541 15.6664C16.5527 17.592 14.5937 18.9769 12.3443 19.5615L12.3448 19.8599C12.3628 31.3991 18.0362 33.7536 25.2264 36.7353C32.6317 39.8211 41.0282 43.2903 41.0513 58.0105L41.0572 61.7972L46.5214 56.313C46.9686 55.8643 47.5757 55.6117 48.2092 55.6107C48.8427 55.6097 49.4506 55.8604 49.8993 56.3077C50.3479 56.7549 50.6005 57.3621 50.6015 57.9955C50.6025 58.629 50.3518 59.237 49.9046 59.6856L40.3706 69.2495C40.1493 69.4718 39.8863 69.6483 39.5967 69.7688C39.307 69.8894 38.9965 69.9518 38.6828 69.9522C38.3691 69.9527 38.0583 69.8914 37.7683 69.7717C37.4783 69.652 37.2148 69.4764 36.9927 69.2548Z" fill="black"/>
</svg>
