<svg width="37" height="52" viewBox="0 0 37 52" fill="none" xmlns="http://www.w3.org/2000/svg">
<path d="M26.966 50.9928L19.9215 43.9703C19.591 43.6409 19.4049 43.1937 19.4042 42.7271C19.4035 42.2605 19.5881 41.8127 19.9176 41.4822C20.247 41.1518 20.6942 40.9657 21.1608 40.965C21.6274 40.9642 22.0752 41.1489 22.4057 41.4783L26.4431 45.5053L26.4387 42.7161C26.4254 34.2165 22.2465 32.4822 16.9503 30.286C11.4958 28.024 5.31104 25.4577 5.29405 14.6151L5.2937 14.3953C3.63548 13.9699 2.18932 12.9543 1.2263 11.539C0.263278 10.1236 -0.150487 8.40562 0.0625594 6.70701C0.275606 5.00841 1.10084 3.44581 2.38357 2.31212C3.66631 1.17843 5.31847 0.551491 7.03038 0.548808C8.7423 0.546125 10.3964 1.16789 11.6827 2.29755C12.969 3.42721 13.7991 4.98721 14.0175 6.68514C14.2359 8.38307 13.8275 10.1024 12.8689 11.5207C11.9103 12.9391 10.4673 13.9592 8.81046 14.3897L8.81081 14.6095C8.82413 23.1091 13.003 24.8434 18.2992 27.0396C23.7537 29.3126 29.9385 31.8679 29.9555 42.7106L29.9598 45.4998L33.9846 41.4602C34.314 41.1297 34.7612 40.9437 35.2279 40.9429C35.6945 40.9422 36.1423 41.1269 36.4727 41.4563C36.8032 41.7857 36.9892 42.2329 36.99 42.6995C36.9907 43.1661 36.806 43.6139 36.4766 43.9444L29.4541 50.9889C29.2911 51.1527 29.0973 51.2827 28.884 51.3715C28.6707 51.4603 28.442 51.5062 28.2109 51.5066C27.9798 51.507 27.7509 51.4618 27.5373 51.3736C27.3237 51.2855 27.1296 51.1561 26.966 50.9928Z" fill="black"/>
</svg>
