<svg width="67" height="68" viewBox="0 0 67 68" fill="none" xmlns="http://www.w3.org/2000/svg">
<path d="M66.2443 56.2523L55.9372 66.5597C55.6979 66.7993 55.4137 66.9893 55.1009 67.119C54.7881 67.2487 54.4528 67.3154 54.1141 67.3154C53.7755 67.3154 53.4402 67.2487 53.1274 67.119C52.8146 66.9893 52.5304 66.7993 52.2911 66.5597L41.984 56.2523C41.6232 55.8919 41.3775 55.4326 41.2779 54.9325C41.1783 54.4323 41.2293 53.9139 41.4245 53.4428C41.6197 52.9717 41.9503 52.5691 42.3744 52.286C42.7985 52.0028 43.2971 51.8519 43.8071 51.8523H51.5374V40.0343L33.5 21.9964L15.4626 40.0343V51.8523H23.1929C23.7029 51.8519 24.2014 52.0028 24.6256 52.286C25.0497 52.5691 25.3803 52.9717 25.5755 53.4428C25.7707 53.9139 25.8217 54.4323 25.7221 54.9325C25.6225 55.4326 25.3768 55.8919 25.016 56.2523L14.7089 66.5597C14.4696 66.7993 14.1854 66.9893 13.8726 67.119C13.5598 67.2487 13.2245 67.3154 12.8859 67.3154C12.5472 67.3154 12.2119 67.2487 11.8991 67.119C11.5863 66.9893 11.3021 66.7993 11.0628 66.5597L0.755734 56.2523C0.394957 55.8919 0.149217 55.4326 0.0496241 54.9325C-0.049969 54.4323 0.0010629 53.9139 0.196259 53.4428C0.391456 52.9717 0.72204 52.5691 1.14616 52.286C1.57028 52.0028 2.06887 51.8519 2.5788 51.8523H10.3091V38.9681C10.3088 38.6296 10.3753 38.2944 10.5046 37.9816C10.6339 37.6687 10.8236 37.3845 11.0628 37.145L30.9232 17.2872V2.89227C30.9232 2.20885 31.1947 1.55342 31.678 1.07017C32.1612 0.586918 32.8166 0.31543 33.5 0.31543C34.1834 0.31543 34.8388 0.586918 35.3221 1.07017C35.8053 1.55342 36.0768 2.20885 36.0768 2.89227V17.2872L55.9372 37.145C56.1764 37.3845 56.3661 37.6687 56.4954 37.9816C56.6247 38.2944 56.6912 38.6296 56.6909 38.9681V51.8523H64.4212C64.9311 51.8519 65.4297 52.0028 65.8538 52.286C66.278 52.5691 66.6085 52.9717 66.8037 53.4428C66.9989 53.9139 67.05 54.4323 66.9504 54.9325C66.8508 55.4326 66.605 55.8919 66.2443 56.2523Z" fill="black"/>
</svg>
