<svg width="67" height="68" viewBox="0 0 67 68" fill="none" xmlns="http://www.w3.org/2000/svg">
<path d="M66.2443 56.4535L55.9372 66.7608C55.6979 67.0004 55.4137 67.1905 55.1009 67.3202C54.7881 67.4499 54.4528 67.5166 54.1141 67.5166C53.7755 67.5166 53.4402 67.4499 53.1274 67.3202C52.8146 67.1905 52.5304 67.0004 52.2911 66.7608L41.984 56.4535C41.6232 56.0931 41.3775 55.6338 41.2779 55.1336C41.1783 54.6335 41.2293 54.1151 41.4245 53.644C41.6197 53.1729 41.9503 52.7703 42.3744 52.4871C42.7985 52.204 43.2971 52.0531 43.8071 52.0535H51.5374V40.2354L33.5 22.1975L15.4626 40.2354V52.0535H23.1929C23.7029 52.0531 24.2014 52.204 24.6256 52.4871C25.0497 52.7703 25.3803 53.1729 25.5755 53.644C25.7707 54.1151 25.8217 54.6335 25.7221 55.1336C25.6225 55.6338 25.3768 56.0931 25.016 56.4535L14.7089 66.7608C14.4696 67.0004 14.1854 67.1905 13.8726 67.3202C13.5598 67.4499 13.2245 67.5166 12.8859 67.5166C12.5472 67.5166 12.2119 67.4499 11.8991 67.3202C11.5863 67.1905 11.3021 67.0004 11.0628 66.7608L0.755734 56.4535C0.394957 56.0931 0.149217 55.6338 0.0496241 55.1336C-0.049969 54.6335 0.0010629 54.1151 0.196259 53.644C0.391456 53.1729 0.72204 52.7703 1.14616 52.4871C1.57028 52.204 2.06887 52.0531 2.5788 52.0535H10.3091V39.1693C10.3088 38.8308 10.3753 38.4955 10.5046 38.1827C10.6339 37.8699 10.8236 37.5856 11.0628 37.3462L30.9232 17.4883V3.09345C30.9232 2.41002 31.1947 1.75459 31.678 1.27134C32.1612 0.78809 32.8166 0.516602 33.5 0.516602C34.1834 0.516602 34.8388 0.78809 35.3221 1.27134C35.8053 1.75459 36.0768 2.41002 36.0768 3.09345V17.4883L55.9372 37.3462C56.1764 37.5856 56.3661 37.8699 56.4954 38.1827C56.6247 38.4955 56.6912 38.8308 56.6909 39.1693V52.0535H64.4212C64.9311 52.0531 65.4297 52.204 65.8538 52.4871C66.278 52.7703 66.6085 53.1729 66.8037 53.644C66.9989 54.1151 67.05 54.6335 66.9504 55.1336C66.8508 55.6338 66.605 56.0931 66.2443 56.4535Z" fill="black"/>
</svg>
