<svg width="149" height="135" viewBox="0 0 149 135" fill="none" xmlns="http://www.w3.org/2000/svg">
<rect x="27" y="11" width="122" height="65.378" rx="12.8421" fill="#F8D57E"/>
<path d="M121.252 88.0521C120.353 89.6087 118.106 89.6087 117.208 88.0521L107.097 70.5401C106.198 68.9835 107.322 67.0377 109.119 67.0377L129.34 67.0377C131.138 67.0377 132.261 68.9835 131.362 70.5401L121.252 88.0521Z" fill="#F8D57E"/>
<path d="M56.7507 28.7229L54.1566 37.6738H52.8467L50.7663 30.4694L48.6088 37.6738L47.3118 37.6867L44.8076 28.7229H46.0533L48.0053 36.3126L50.1627 28.7229H51.4726L53.5274 36.2869L55.4922 28.7229H56.7507ZM61.0989 37.7894C60.4397 37.7894 59.8404 37.6396 59.301 37.3399C58.7702 37.0403 58.3507 36.6165 58.0425 36.0686C57.7428 35.5121 57.593 34.87 57.593 34.1422C57.593 33.4231 57.7471 32.7895 58.0553 32.2416C58.3721 31.6851 58.8002 31.2613 59.3395 30.9702C59.8789 30.6706 60.4825 30.5208 61.1503 30.5208C61.818 30.5208 62.4216 30.6706 62.961 30.9702C63.5004 31.2613 63.9242 31.6808 64.2324 32.2288C64.5491 32.7767 64.7075 33.4145 64.7075 34.1422C64.7075 34.87 64.5449 35.5121 64.2195 36.0686C63.9027 36.6165 63.4704 37.0403 62.9225 37.3399C62.3745 37.6396 61.7667 37.7894 61.0989 37.7894ZM61.0989 36.762C61.5184 36.762 61.9122 36.6636 62.2804 36.4667C62.6485 36.2698 62.9439 35.9744 63.1665 35.5806C63.3976 35.1867 63.5132 34.7073 63.5132 34.1422C63.5132 33.5772 63.4019 33.0978 63.1793 32.7039C62.9567 32.3101 62.6656 32.019 62.306 31.8307C61.9465 31.6338 61.5569 31.5353 61.1374 31.5353C60.7093 31.5353 60.3155 31.6338 59.9559 31.8307C59.6049 32.019 59.3224 32.3101 59.1084 32.7039C58.8943 33.0978 58.7873 33.5772 58.7873 34.1422C58.7873 34.7159 58.89 35.1996 59.0955 35.5934C59.3096 35.9872 59.5921 36.2826 59.9431 36.4795C60.2941 36.6679 60.6794 36.762 61.0989 36.762ZM75.6188 30.6364L73.4228 37.6738H72.2156L70.5205 32.0875L68.8253 37.6738H67.6182L65.4093 30.6364H66.6036L68.2217 36.5437L69.9683 30.6364H71.1626L72.8706 36.5566L74.463 30.6364H75.6188ZM78.294 28.7229L78.1527 35.1439H77.1767L77.0354 28.7229H78.294ZM77.7161 37.7509C77.4935 37.7509 77.3051 37.6738 77.151 37.5197C76.9969 37.3656 76.9199 37.1773 76.9199 36.9547C76.9199 36.7321 76.9969 36.5437 77.151 36.3896C77.3051 36.2355 77.4935 36.1585 77.7161 36.1585C77.9301 36.1585 78.1099 36.2355 78.2554 36.3896C78.4095 36.5437 78.4866 36.7321 78.4866 36.9547C78.4866 37.1773 78.4095 37.3656 78.2554 37.5197C78.1099 37.6738 77.9301 37.7509 77.7161 37.7509ZM85.196 36.7235H88.3295V37.6738H84.0274V28.7229H85.196V36.7235ZM92.6398 37.7894C91.9806 37.7894 91.3813 37.6396 90.8419 37.3399C90.3111 37.0403 89.8916 36.6165 89.5834 36.0686C89.2837 35.5121 89.1339 34.87 89.1339 34.1422C89.1339 33.4231 89.288 32.7895 89.5962 32.2416C89.913 31.6851 90.3411 31.2613 90.8804 30.9702C91.4198 30.6706 92.0234 30.5208 92.6912 30.5208C93.359 30.5208 93.9625 30.6706 94.5019 30.9702C95.0413 31.2613 95.4651 31.6808 95.7733 32.2288C96.09 32.7767 96.2484 33.4145 96.2484 34.1422C96.2484 34.87 96.0858 35.5121 95.7604 36.0686C95.4437 36.6165 95.0113 37.0403 94.4634 37.3399C93.9155 37.6396 93.3076 37.7894 92.6398 37.7894ZM92.6398 36.762C93.0593 36.762 93.4531 36.6636 93.8213 36.4667C94.1894 36.2698 94.4848 35.9744 94.7074 35.5806C94.9385 35.1867 95.0541 34.7073 95.0541 34.1422C95.0541 33.5772 94.9428 33.0978 94.7202 32.7039C94.4976 32.3101 94.2065 32.019 93.847 31.8307C93.4874 31.6338 93.0978 31.5353 92.6783 31.5353C92.2503 31.5353 91.8564 31.6338 91.4969 31.8307C91.1458 32.019 90.8633 32.3101 90.6493 32.7039C90.4352 33.0978 90.3282 33.5772 90.3282 34.1422C90.3282 34.7159 90.431 35.1996 90.6364 35.5934C90.8505 35.9872 91.133 36.2826 91.484 36.4795C91.835 36.6679 92.2203 36.762 92.6398 36.762ZM100.405 36.5951L102.588 30.6364H103.834L101.073 37.6738H99.7113L96.9502 30.6364H98.2088L100.405 36.5951ZM111.405 33.8854C111.405 34.108 111.392 34.3434 111.366 34.5917H105.741C105.784 35.2852 106.02 35.8288 106.448 36.2227C106.884 36.6079 107.411 36.8006 108.027 36.8006C108.532 36.8006 108.952 36.685 109.286 36.4538C109.628 36.2141 109.868 35.8973 110.005 35.5035H111.263C111.075 36.1799 110.698 36.7321 110.133 37.1601C109.568 37.5797 108.866 37.7894 108.027 37.7894C107.359 37.7894 106.76 37.6396 106.229 37.3399C105.707 37.0403 105.296 36.6165 104.996 36.0686C104.697 35.5121 104.547 34.87 104.547 34.1422C104.547 33.4145 104.692 32.7767 104.984 32.2288C105.275 31.6808 105.681 31.2613 106.204 30.9702C106.734 30.6706 107.342 30.5208 108.027 30.5208C108.695 30.5208 109.286 30.6663 109.799 30.9574C110.313 31.2485 110.707 31.6509 110.981 32.1646C111.263 32.6697 111.405 33.2433 111.405 33.8854ZM110.197 33.6414C110.197 33.1962 110.099 32.8152 109.902 32.4985C109.705 32.1731 109.436 31.9291 109.093 31.7665C108.759 31.5952 108.387 31.5096 107.976 31.5096C107.385 31.5096 106.88 31.698 106.46 32.0747C106.049 32.4514 105.814 32.9736 105.754 33.6414H110.197ZM46.9265 52.5995V56.7475C46.9265 57.09 46.9993 57.334 47.1448 57.4795C47.2904 57.6165 47.5429 57.685 47.9025 57.685H48.7629V58.6738H47.7099C47.0592 58.6738 46.5712 58.524 46.2459 58.2244C45.9206 57.9247 45.7579 57.4324 45.7579 56.7475V52.5995H44.8461V51.6364H45.7579V49.8641H46.9265V51.6364H48.7629V52.5995H46.9265ZM53.6719 51.5079C54.2027 51.5079 54.6822 51.6235 55.1103 51.8547C55.5383 52.0773 55.8722 52.4154 56.1119 52.8692C56.3602 53.323 56.4844 53.8752 56.4844 54.5258V58.6738H55.3286V54.6928C55.3286 53.9907 55.1531 53.4557 54.802 53.0875C54.451 52.7108 53.9716 52.5225 53.3637 52.5225C52.7473 52.5225 52.255 52.7151 51.8869 53.1004C51.5273 53.4856 51.3475 54.0464 51.3475 54.7827V58.6738H50.1789V49.1707H51.3475V52.638C51.5787 52.2785 51.8954 52.0002 52.2978 51.8033C52.7088 51.6064 53.1668 51.5079 53.6719 51.5079ZM57.9567 55.1294C57.9567 54.4102 58.1022 53.781 58.3933 53.2416C58.6844 52.6937 59.0825 52.2699 59.5876 51.9702C60.1013 51.6706 60.6707 51.5208 61.2956 51.5208C61.9121 51.5208 62.4471 51.6535 62.9009 51.9189C63.3547 52.1843 63.6928 52.5182 63.9154 52.9206V51.6364H65.0969V58.6738H63.9154V57.3639C63.6843 57.7749 63.3375 58.1173 62.8752 58.3913C62.4215 58.6567 61.8907 58.7894 61.2828 58.7894C60.6578 58.7894 60.0928 58.6353 59.5876 58.3271C59.0825 58.0189 58.6844 57.5865 58.3933 57.03C58.1022 56.4735 57.9567 55.84 57.9567 55.1294ZM63.9154 55.1422C63.9154 54.6114 63.8084 54.1491 63.5944 53.7553C63.3803 53.3615 63.0892 53.0618 62.7211 52.8564C62.3615 52.6423 61.9634 52.5353 61.5268 52.5353C61.0902 52.5353 60.6921 52.638 60.3325 52.8435C59.9729 53.049 59.6861 53.3486 59.4721 53.7425C59.258 54.1363 59.151 54.5986 59.151 55.1294C59.151 55.6688 59.258 56.1397 59.4721 56.542C59.6861 56.9359 59.9729 57.2398 60.3325 57.4538C60.6921 57.6593 61.0902 57.762 61.5268 57.762C61.9634 57.762 62.3615 57.6593 62.7211 57.4538C63.0892 57.2398 63.3803 56.9359 63.5944 56.542C63.8084 56.1397 63.9154 55.6731 63.9154 55.1422ZM68.4972 52.5995V56.7475C68.4972 57.09 68.57 57.334 68.7156 57.4795C68.8611 57.6165 69.1137 57.685 69.4732 57.685H70.3337V58.6738H69.2806C68.6299 58.6738 68.1419 58.524 67.8166 58.2244C67.4913 57.9247 67.3286 57.4324 67.3286 56.7475V52.5995H66.4168V51.6364H67.3286V49.8641H68.4972V51.6364H70.3337V52.5995H68.4972ZM74.7367 55.1294C74.7367 54.4102 74.8822 53.781 75.1733 53.2416C75.4644 52.6937 75.8625 52.2699 76.3676 51.9702C76.8813 51.6706 77.4549 51.5208 78.0885 51.5208C78.6364 51.5208 79.1458 51.6492 79.6167 51.906C80.0876 52.1543 80.4472 52.4839 80.6954 52.8949V49.1707H81.8769V58.6738H80.6954V57.3511C80.4643 57.7706 80.1218 58.1173 79.6681 58.3913C79.2143 58.6567 78.6835 58.7894 78.0756 58.7894C77.4507 58.7894 76.8813 58.6353 76.3676 58.3271C75.8625 58.0189 75.4644 57.5865 75.1733 57.03C74.8822 56.4735 74.7367 55.84 74.7367 55.1294ZM80.6954 55.1422C80.6954 54.6114 80.5884 54.1491 80.3744 53.7553C80.1604 53.3615 79.8693 53.0618 79.5011 52.8564C79.1415 52.6423 78.7434 52.5353 78.3068 52.5353C77.8702 52.5353 77.4721 52.638 77.1125 52.8435C76.7529 53.049 76.4661 53.3486 76.2521 53.7425C76.038 54.1363 75.931 54.5986 75.931 55.1294C75.931 55.6688 76.038 56.1397 76.2521 56.542C76.4661 56.9359 76.7529 57.2398 77.1125 57.4538C77.4721 57.6593 77.8702 57.762 78.3068 57.762C78.7434 57.762 79.1415 57.6593 79.5011 57.4538C79.8693 57.2398 80.1604 56.9359 80.3744 56.542C80.5884 56.1397 80.6954 55.6731 80.6954 55.1422ZM90.2728 54.8854C90.2728 55.108 90.26 55.3434 90.2343 55.5917H84.6095C84.6523 56.2852 84.8877 56.8288 85.3158 57.2227C85.7524 57.6079 86.2789 57.8006 86.8954 57.8006C87.4005 57.8006 87.82 57.685 88.1539 57.4538C88.4963 57.2141 88.7361 56.8973 88.8731 56.5035H90.1316C89.9432 57.1799 89.5665 57.7321 89.0015 58.1601C88.4364 58.5797 87.7344 58.7894 86.8954 58.7894C86.2276 58.7894 85.6283 58.6396 85.0975 58.3399C84.5752 58.0403 84.1643 57.6165 83.8646 57.0686C83.565 56.5121 83.4152 55.87 83.4152 55.1422C83.4152 54.4145 83.5607 53.7767 83.8518 53.2288C84.1429 52.6808 84.5495 52.2613 85.0718 51.9702C85.6026 51.6706 86.2105 51.5208 86.8954 51.5208C87.5632 51.5208 88.1539 51.6663 88.6676 51.9574C89.1813 52.2485 89.5751 52.6509 89.8491 53.1646C90.1316 53.6697 90.2728 54.2433 90.2728 54.8854ZM89.0657 54.6414C89.0657 54.1962 88.9672 53.8152 88.7703 53.4985C88.5734 53.1731 88.3037 52.9291 87.9613 52.7665C87.6274 52.5952 87.2549 52.5096 86.844 52.5096C86.2533 52.5096 85.7481 52.698 85.3286 53.0747C84.9177 53.4514 84.6822 53.9736 84.6223 54.6414H89.0657ZM94.3068 58.7894C93.7674 58.7894 93.2837 58.6995 92.8556 58.5197C92.4275 58.3314 92.0894 58.0745 91.8411 57.7492C91.5928 57.4153 91.4558 57.0343 91.4301 56.6062H92.6373C92.6715 56.9573 92.8342 57.2441 93.1253 57.4667C93.4249 57.6893 93.8145 57.8006 94.2939 57.8006C94.7391 57.8006 95.0901 57.7021 95.347 57.5052C95.6038 57.3083 95.7322 57.06 95.7322 56.7604C95.7322 56.4521 95.5953 56.2253 95.3213 56.0797C95.0473 55.9256 94.6235 55.7758 94.0499 55.6302C93.5277 55.4933 93.0996 55.3563 92.7657 55.2193C92.4404 55.0738 92.1579 54.864 91.9181 54.59C91.687 54.3075 91.5714 53.9394 91.5714 53.4856C91.5714 53.126 91.6784 52.7964 91.8925 52.4968C92.1065 52.1971 92.4104 51.9617 92.8042 51.7905C93.1981 51.6107 93.6475 51.5208 94.1527 51.5208C94.9318 51.5208 95.561 51.7177 96.0405 52.1115C96.5199 52.5053 96.7767 53.0447 96.811 53.7296H95.6423C95.6167 53.3615 95.4668 53.0661 95.1929 52.8435C94.9275 52.6209 94.5679 52.5096 94.1141 52.5096C93.6946 52.5096 93.3607 52.5995 93.1125 52.7793C92.8642 52.9591 92.74 53.1945 92.74 53.4856C92.74 53.7168 92.8128 53.9094 92.9583 54.0635C93.1125 54.2091 93.3008 54.3289 93.5234 54.4231C93.7546 54.5087 94.0713 54.6072 94.4737 54.7185C94.9788 54.8554 95.3898 54.9924 95.7066 55.1294C96.0233 55.2578 96.293 55.4547 96.5156 55.7201C96.7468 55.9855 96.8666 56.3323 96.8752 56.7604C96.8752 57.1456 96.7682 57.4924 96.5541 57.8006C96.3401 58.1088 96.0362 58.3528 95.6423 58.5326C95.2571 58.7038 94.8119 58.7894 94.3068 58.7894ZM99.1285 50.4934C98.9059 50.4934 98.7175 50.4164 98.5634 50.2622C98.4093 50.1081 98.3323 49.9198 98.3323 49.6972C98.3323 49.4746 98.4093 49.2862 98.5634 49.1321C98.7175 48.978 98.9059 48.901 99.1285 48.901C99.3425 48.901 99.5223 48.978 99.6678 49.1321C99.8219 49.2862 99.899 49.4746 99.899 49.6972C99.899 49.9198 99.8219 50.1081 99.6678 50.2622C99.5223 50.4164 99.3425 50.4934 99.1285 50.4934ZM99.6935 51.6364V58.6738H98.5249V51.6364H99.6935ZM104.588 51.5208C105.195 51.5208 105.726 51.6535 106.18 51.9189C106.642 52.1843 106.985 52.5182 107.207 52.9206V51.6364H108.389V58.8279C108.389 59.47 108.252 60.0394 107.978 60.5359C107.704 61.0411 107.31 61.4349 106.796 61.7174C106.291 61.9999 105.701 62.1412 105.024 62.1412C104.1 62.1412 103.329 61.9229 102.713 61.4862C102.096 61.0496 101.732 60.4546 101.621 59.7012H102.777C102.905 60.1293 103.171 60.4717 103.573 60.7286C103.975 60.994 104.459 61.1267 105.024 61.1267C105.666 61.1267 106.189 60.9255 106.591 60.5231C107.002 60.1207 107.207 59.5557 107.207 58.8279V57.3511C106.976 57.762 106.634 58.1045 106.18 58.3785C105.726 58.6524 105.195 58.7894 104.588 58.7894C103.963 58.7894 103.393 58.6353 102.88 58.3271C102.374 58.0189 101.976 57.5865 101.685 57.03C101.394 56.4735 101.249 55.84 101.249 55.1294C101.249 54.4102 101.394 53.781 101.685 53.2416C101.976 52.6937 102.374 52.2699 102.88 51.9702C103.393 51.6706 103.963 51.5208 104.588 51.5208ZM107.207 55.1422C107.207 54.6114 107.1 54.1491 106.886 53.7553C106.672 53.3615 106.381 53.0618 106.013 52.8564C105.653 52.6423 105.255 52.5353 104.819 52.5353C104.382 52.5353 103.984 52.638 103.624 52.8435C103.265 53.049 102.978 53.3486 102.764 53.7425C102.55 54.1363 102.443 54.5986 102.443 55.1294C102.443 55.6688 102.55 56.1397 102.764 56.542C102.978 56.9359 103.265 57.2398 103.624 57.4538C103.984 57.6593 104.382 57.762 104.819 57.762C105.255 57.762 105.653 57.6593 106.013 57.4538C106.381 57.2398 106.672 56.9359 106.886 56.542C107.1 56.1397 107.207 55.6731 107.207 55.1422ZM113.793 51.5079C114.649 51.5079 115.342 51.7691 115.873 52.2913C116.404 52.805 116.669 53.5498 116.669 54.5258V58.6738H115.513V54.6928C115.513 53.9907 115.338 53.4557 114.987 53.0875C114.636 52.7108 114.156 52.5225 113.549 52.5225C112.932 52.5225 112.44 52.7151 112.072 53.1004C111.712 53.4856 111.532 54.0464 111.532 54.7827V58.6738H110.364V51.6364H111.532V52.638C111.764 52.2785 112.076 52.0002 112.47 51.8033C112.872 51.6064 113.313 51.5079 113.793 51.5079Z" fill="#2B2B2B"/>
<rect y="110.146" width="77" height="24.4377" rx="12.2188" fill="#96D1C7"/>
<ellipse cx="78.8362" cy="99.8263" rx="6.83616" ry="6.82633" fill="#96D1C7"/>
<circle cx="28" cy="11" r="11" fill="#FF897C"/>
</svg>
