<svg width="57" height="59" viewBox="0 0 57 59" fill="none" xmlns="http://www.w3.org/2000/svg">
<path d="M7.05719 8.85114L7.9992 8.78601L7.9992 8.786L7.05719 8.85114ZM7.30159 1.2106C6.91092 0.825524 6.31447 0.866762 5.96939 1.30271L0.345959 8.40687C0.000878669 8.84282 0.0378366 9.50839 0.428506 9.89346C0.819178 10.2785 1.41562 10.2373 1.76071 9.80136L6.75931 3.48654L12.4183 9.06445C12.809 9.44953 13.4054 9.40829 13.7505 8.97234C14.0956 8.53639 14.0586 7.87083 13.6679 7.48575L7.30159 1.2106ZM7.9992 8.786L7.61877 1.93482L5.73476 2.06508L6.11518 8.91627L7.9992 8.786ZM56.3531 56.4474C31.2061 58.1861 9.55735 36.8474 7.9992 8.78601L6.11518 8.91627C7.73781 38.1387 30.2823 60.3604 56.4698 58.5498L56.3531 56.4474Z" fill="black"/>
</svg>
