<svg width="60" height="62" viewBox="0 0 60 62" fill="none" xmlns="http://www.w3.org/2000/svg">
<path d="M52.7335 53.1186L51.7915 53.1837L51.7915 53.1837L52.7335 53.1186ZM52.5094 61.124C52.9001 61.5091 53.4965 61.4679 53.8416 61.0319L59.465 53.9278C59.8101 53.4918 59.7732 52.8262 59.3825 52.4412C58.9918 52.0561 58.3954 52.0973 58.0503 52.5333L53.0517 58.8481L47.3927 53.2702C47.002 52.8851 46.4056 52.9263 46.0605 53.3623C45.7154 53.7982 45.7524 54.4638 46.1431 54.8489L52.5094 61.124ZM51.7915 53.1837L52.1922 60.3998L54.0762 60.2695L53.6755 53.0535L51.7915 53.1837ZM0.809286 2.93163C27.3232 1.09844 50.1487 23.5971 51.7915 53.1837L53.6755 53.0535C51.9682 22.3057 28.2469 -1.07586 0.692553 0.829274L0.809286 2.93163Z" fill="black"/>
</svg>
