<svg width="59" height="58" viewBox="0 0 59 58" fill="none" xmlns="http://www.w3.org/2000/svg">
<path d="M8.04803 50.4465L8.04801 49.4465L8.04803 50.4465ZM0.792522 49.7395C0.402005 50.13 0.402012 50.7632 0.792544 51.1537L7.1566 57.5176C7.54713 57.9081 8.1803 57.9081 8.57081 57.5176C8.96133 57.127 8.96132 56.4939 8.57079 56.1034L2.91385 50.4466L8.57062 44.7896C8.96114 44.3991 8.96113 43.7659 8.5706 43.3754C8.18007 42.9849 7.54691 42.9849 7.15639 43.3754L0.792522 49.7395ZM8.04801 49.4465L1.49963 49.4466L1.49965 51.4466L8.04804 51.4465L8.04801 49.4465ZM56.6159 0.877261C56.6162 27.7009 34.8717 49.4461 8.04801 49.4465L8.04804 51.4465C35.9763 51.4461 58.6162 28.8055 58.6159 0.877236L56.6159 0.877261Z" fill="black"/>
</svg>
