<svg width="63" height="59" viewBox="0 0 63 59" fill="none" xmlns="http://www.w3.org/2000/svg">
<path d="M7.46679 8.72762L8.46487 8.66578L8.46487 8.66578L7.46679 8.72762ZM7.70429 1.12693C7.29037 0.761308 6.65841 0.800463 6.29279 1.21439L0.334578 7.95975C-0.0310519 8.37367 0.0081062 9.00562 0.422038 9.37125C0.835963 9.73687 1.46792 9.69772 1.83354 9.28379L7.12973 3.28792L13.1256 8.58411C13.5395 8.94973 14.1715 8.91058 14.5371 8.49665C14.9027 8.08272 14.8636 7.45077 14.4496 7.08514L7.70429 1.12693ZM8.46487 8.66578L8.04036 1.81457L6.04418 1.93826L6.4687 8.78947L8.46487 8.66578ZM62.4791 56.377C34.3884 58.1175 10.2054 36.7565 8.46487 8.66578L6.4687 8.78946C8.27756 37.9826 33.4096 60.182 62.6028 58.3732L62.4791 56.377Z" fill="black"/>
</svg>
