<svg width="53" height="59" viewBox="0 0 53 59" fill="none" xmlns="http://www.w3.org/2000/svg">
<path d="M7.54362 50.4465L7.531 51.4989L7.54362 50.4465ZM1.0903 49.7024C0.716479 50.1134 0.70849 50.7798 1.07245 51.1908L7.0035 57.8882C7.36746 58.2992 7.96555 58.2992 8.33937 57.8882C8.71319 57.4772 8.72118 56.8108 8.35722 56.3998L3.08517 50.4466L8.50003 44.4931C8.87385 44.0821 8.88184 43.4158 8.51788 43.0048C8.15392 42.5938 7.55584 42.5938 7.18202 43.0048L1.0903 49.7024ZM7.55624 49.3941L1.76193 49.3942L1.73668 51.499L7.531 51.4989L7.55624 49.3941ZM51.0928 0.89134C51.0931 27.5727 31.5063 49.3937 7.55624 49.3941L7.531 51.4989C32.5344 51.4985 52.9825 28.7179 52.9821 0.863157L51.0928 0.89134Z" fill="black"/>
</svg>
