<svg width="61" height="59" viewBox="0 0 61 59" fill="none" xmlns="http://www.w3.org/2000/svg">
<path d="M52.1713 7.53433L52.1713 6.53433L52.1713 7.53433ZM60.1085 8.24134C60.499 7.85081 60.499 7.21764 60.1085 6.82712L53.7444 0.463241C53.3539 0.0727256 52.7207 0.0727335 52.3302 0.46326C51.9397 0.85379 51.9397 1.48696 52.3302 1.87748L57.9871 7.53426L52.3304 13.1912C51.9398 13.5817 51.9398 14.2149 52.3304 14.6054C52.7209 14.9959 53.3541 14.9959 53.7446 14.6054L60.1085 8.24134ZM52.1713 8.53433L59.4014 8.53424L59.4013 6.53424L52.1713 6.53433L52.1713 8.53433ZM2.57527 58.132C2.5747 30.7404 24.7797 8.53469 52.1713 8.53433L52.1713 6.53433C23.6751 6.5347 0.574677 29.6359 0.575271 58.1321L2.57527 58.132Z" fill="black"/>
</svg>
