<svg width="55" height="60" viewBox="0 0 55 60" fill="none" xmlns="http://www.w3.org/2000/svg">
<path d="M46.8996 8.65738L46.9132 7.60509L46.8996 8.65738ZM53.9499 9.40136C54.3241 8.99041 54.3327 8.32413 53.969 7.91319L48.0432 1.21654C47.6795 0.805603 47.0814 0.805608 46.7071 1.21656C46.3329 1.62751 46.3243 2.29378 46.688 2.70472L51.9554 8.6573L46.5345 14.61C46.1603 15.021 46.1517 15.6873 46.5153 16.0982C46.879 16.5091 47.4771 16.5091 47.8514 16.0982L53.9499 9.40136ZM46.8861 9.70967L53.2779 9.70957L53.305 7.605L46.9132 7.60509L46.8861 9.70967ZM2.41583 59.24C2.41533 32.0014 22.4294 9.71002 46.8861 9.70967L46.9132 7.60509C21.4024 7.60546 0.525666 30.8577 0.526197 59.2703L2.41583 59.24Z" fill="black"/>
</svg>
