<svg width="66" height="62" viewBox="0 0 66 62" fill="none" xmlns="http://www.w3.org/2000/svg">
<path d="M58.5075 53.1186L59.5056 53.0568L58.5075 53.1186ZM58.2926 61.0842C58.7065 61.4498 59.3385 61.4106 59.7041 60.9967L65.6623 54.2514C66.0279 53.8374 65.9888 53.2055 65.5749 52.8398C65.1609 52.4742 64.529 52.5134 64.1634 52.9273L58.8672 58.9232L52.8713 53.627C52.4574 53.2614 51.8254 53.3005 51.4598 53.7144C51.0942 54.1284 51.1333 54.7603 51.5473 55.1259L58.2926 61.0842ZM57.5094 53.1804L57.9565 60.3965L59.9527 60.2728L59.5056 53.0568L57.5094 53.1804ZM0.562245 2.87854C30.1783 1.04353 55.6744 23.5644 57.5094 53.1804L59.5056 53.0568C57.6022 22.3383 31.157 -1.02095 0.438563 0.882366L0.562245 2.87854Z" fill="black"/>
</svg>
