<svg width="119" height="122" viewBox="0 0 119 122" fill="none" xmlns="http://www.w3.org/2000/svg">
<g clip-path="url(#clip0_3618_945)">
<mask id="path-1-inside-1_3618_945" fill="white">
<path d="M8.36344 48.3986H7.77344V30.9902L25.1932 20.9834L25.4882 21.4867L8.36344 31.3455V48.3986Z"/>
</mask>
<path d="M8.36344 48.3986H7.77344V30.9902L25.1932 20.9834L25.4882 21.4867L8.36344 31.3455V48.3986Z" fill="#75171E"/>
<path d="M8.36344 48.3986V49.3986H9.36344V48.3986H8.36344ZM7.77344 48.3986H6.77344V49.3986H7.77344V48.3986ZM7.77344 30.9902L7.27532 30.1231L6.77344 30.4114V30.9902H7.77344ZM25.1932 20.9834L26.0559 20.4777L25.5546 19.6225L24.6951 20.1163L25.1932 20.9834ZM25.4882 21.4867L25.9871 22.3533L26.8605 21.8505L26.3509 20.981L25.4882 21.4867ZM8.36344 31.3455L7.86451 30.4789L7.36344 30.7673V31.3455H8.36344ZM8.36344 47.3986H7.77344V49.3986H8.36344V47.3986ZM8.77344 48.3986V30.9902H6.77344V48.3986H8.77344ZM8.27155 31.8574L25.6913 21.8505L24.6951 20.1163L7.27532 30.1231L8.27155 31.8574ZM24.3305 21.4891L24.6255 21.9924L26.3509 20.981L26.0559 20.4777L24.3305 21.4891ZM24.9893 20.6201L7.86451 30.4789L8.86237 32.2122L25.9871 22.3533L24.9893 20.6201ZM7.36344 31.3455V48.3986H9.36344V31.3455H7.36344Z" fill="#75171E" mask="url(#path-1-inside-1_3618_945)"/>
<path d="M8.36344 48.3994H7.77344V51.0344H8.36344V48.3994Z" fill="#75171E"/>
<mask id="path-4-inside-2_3618_945" fill="white">
<path d="M23.8657 99.8099L7.77344 90.558V70.5146H8.36344V90.2027L24.1607 99.3065L23.8657 99.8099Z"/>
</mask>
<path d="M23.8657 99.8099L7.77344 90.558V70.5146H8.36344V90.2027L24.1607 99.3065L23.8657 99.8099Z" fill="#75171E"/>
<path d="M23.8657 99.8099L23.3673 100.677L24.227 101.171L24.7284 100.316L23.8657 99.8099ZM7.77344 90.558H6.77344V91.1365L7.27501 91.4249L7.77344 90.558ZM7.77344 70.5146V69.5146H6.77344V70.5146H7.77344ZM8.36344 70.5146H9.36344V69.5146H8.36344V70.5146ZM8.36344 90.2027H7.36344V90.7806L7.86412 91.0691L8.36344 90.2027ZM24.1607 99.3065L25.0234 99.8122L25.5328 98.9431L24.66 98.4401L24.1607 99.3065ZM24.3641 98.9429L8.27186 89.691L7.27501 91.4249L23.3673 100.677L24.3641 98.9429ZM8.77344 90.558V70.5146H6.77344V90.558H8.77344ZM7.77344 71.5146H8.36344V69.5146H7.77344V71.5146ZM7.36344 70.5146V90.2027H9.36344V70.5146H7.36344ZM7.86412 91.0691L23.6614 100.173L24.66 98.4401L8.86275 89.3363L7.86412 91.0691ZM23.298 98.8009L23.003 99.3042L24.7284 100.316L25.0234 99.8122L23.298 98.8009Z" fill="#75171E" mask="url(#path-4-inside-2_3618_945)"/>
<path d="M24.1449 99.3017L23.8516 99.8154L25.1697 100.574L25.463 100.06L24.1449 99.3017Z" fill="#75171E"/>
<mask id="path-7-inside-3_3618_945" fill="white">
<path d="M59.2956 120.326L41.8906 110.305L42.1856 109.801L59.2956 119.645L77.3496 109.269L77.6446 109.772L59.2956 120.326Z"/>
</mask>
<path d="M59.2956 120.326L41.8906 110.305L42.1856 109.801L59.2956 119.645L77.3496 109.269L77.6446 109.772L59.2956 120.326Z" fill="#75171E"/>
<path d="M59.2956 120.326L58.7966 121.193L59.2954 121.48L59.7942 121.193L59.2956 120.326ZM41.8906 110.305L41.0279 109.799L40.5183 110.669L41.3916 111.171L41.8906 110.305ZM42.1856 109.801L42.6843 108.935L41.8245 108.44L41.3229 109.296L42.1856 109.801ZM59.2956 119.645L58.7969 120.512L59.2954 120.799L59.7939 120.512L59.2956 119.645ZM77.3496 109.269L78.2123 108.763L77.711 107.907L76.8513 108.402L77.3496 109.269ZM77.6446 109.772L78.1432 110.639L79.0172 110.136L78.5073 109.266L77.6446 109.772ZM59.7946 119.46L42.3896 109.438L41.3916 111.171L58.7966 121.193L59.7946 119.46ZM42.7534 110.81L43.0484 110.307L41.3229 109.296L41.0279 109.799L42.7534 110.81ZM41.6869 110.668L58.7969 120.512L59.7943 118.779L42.6843 108.935L41.6869 110.668ZM59.7939 120.512L77.8479 110.136L76.8513 108.402L58.7973 118.778L59.7939 120.512ZM76.4869 109.774L76.7819 110.278L78.5073 109.266L78.2123 108.763L76.4869 109.774ZM77.146 108.905L58.797 119.46L59.7942 121.193L78.1432 110.639L77.146 108.905Z" fill="#75171E" mask="url(#path-7-inside-3_3618_945)"/>
<mask id="path-9-inside-4_3618_945" fill="white">
<path d="M93.8848 100.565L93.5898 100.062L110.7 90.2032V72.3359H111.29V90.5585L111.142 90.6325L93.8848 100.565Z"/>
</mask>
<path d="M93.8848 100.565L93.5898 100.062L110.7 90.2032V72.3359H111.29V90.5585L111.142 90.6325L93.8848 100.565Z" fill="#75171E"/>
<path d="M93.8848 100.565L93.0221 101.071L93.5238 101.927L94.3837 101.432L93.8848 100.565ZM93.5898 100.062L93.0906 99.1956L92.2177 99.6985L92.7271 100.568L93.5898 100.062ZM110.7 90.2032L111.199 91.0697L111.7 90.7811V90.2032H110.7ZM110.7 72.3359V71.3359H109.7V72.3359H110.7ZM111.29 72.3359H112.29V71.3359H111.29V72.3359ZM111.29 90.5585L111.738 91.4523L112.29 91.1755V90.5585H111.29ZM111.142 90.6325L110.694 89.7387L110.668 89.7515L110.644 89.7658L111.142 90.6325ZM94.7476 100.06L94.4526 99.5564L92.7271 100.568L93.0221 101.071L94.7476 100.06ZM94.0891 100.928L111.199 91.0697L110.201 89.3367L93.0906 99.1956L94.0891 100.928ZM111.7 90.2032V72.3359H109.7V90.2032H111.7ZM110.7 73.3359H111.29V71.3359H110.7V73.3359ZM110.29 72.3359V90.5585H112.29V72.3359H110.29ZM110.841 89.6647L110.694 89.7387L111.591 91.5263L111.738 91.4523L110.841 89.6647ZM110.644 89.7658L93.386 99.6986L94.3837 101.432L111.641 91.4992L110.644 89.7658Z" fill="#75171E" mask="url(#path-9-inside-4_3618_945)"/>
<mask id="path-11-inside-5_3618_945" fill="white">
<path d="M111.29 51.0336H110.7V31.3455L93.5898 21.4867L93.8848 20.9834L111.29 30.9902V51.0336Z"/>
</mask>
<path d="M111.29 51.0336H110.7V31.3455L93.5898 21.4867L93.8848 20.9834L111.29 30.9902V51.0336Z" fill="#75171E"/>
<path d="M111.29 51.0336V52.0336H112.29V51.0336H111.29ZM110.7 51.0336H109.7V52.0336H110.7V51.0336ZM110.7 31.3455H111.7V30.7676L111.199 30.4791L110.7 31.3455ZM93.5898 21.4867L92.7271 20.981L92.2177 21.8502L93.0906 22.3532L93.5898 21.4867ZM93.8848 20.9834L94.3833 20.1165L93.5236 19.6222L93.0221 20.4777L93.8848 20.9834ZM111.29 30.9902H112.29V30.4117L111.788 30.1233L111.29 30.9902ZM111.29 50.0336H110.7V52.0336H111.29V50.0336ZM111.7 51.0336V31.3455H109.7V51.0336H111.7ZM111.199 30.4791L94.0891 20.6202L93.0906 22.3532L110.201 32.212L111.199 30.4791ZM94.4526 21.9924L94.7476 21.4891L93.0221 20.4777L92.7271 20.981L94.4526 21.9924ZM93.3864 21.8503L110.791 31.8572L111.788 30.1233L94.3833 20.1165L93.3864 21.8503ZM110.29 30.9902V51.0336H112.29V30.9902H110.29Z" fill="#75171E" mask="url(#path-11-inside-5_3618_945)"/>
<mask id="path-13-inside-6_3618_945" fill="white">
<path d="M77.821 12.2795L59.767 1.90262L41.713 12.2795L41.418 11.7762L59.767 1.22168L78.116 11.7762L77.821 12.2795Z"/>
</mask>
<path d="M77.821 12.2795L59.767 1.90262L41.713 12.2795L41.418 11.7762L59.767 1.22168L78.116 11.7762L77.821 12.2795Z" fill="#75171E"/>
<path d="M77.821 12.2795L77.3227 13.1465L78.1823 13.6406L78.6837 12.7852L77.821 12.2795ZM59.767 1.90262L60.2653 1.03563L59.767 0.749206L59.2686 1.03563L59.767 1.90262ZM41.713 12.2795L40.8502 12.7852L41.3516 13.6406L42.2113 13.1465L41.713 12.2795ZM41.418 11.7762L40.9194 10.9094L40.0454 11.4121L40.5552 12.2819L41.418 11.7762ZM59.767 1.22168L60.2656 0.354853L59.767 0.0680469L59.2684 0.354853L59.767 1.22168ZM78.116 11.7762L78.9787 12.2819L79.4885 11.4121L78.6146 10.9094L78.116 11.7762ZM78.3193 11.4126L60.2653 1.03563L59.2686 2.76961L77.3227 13.1465L78.3193 11.4126ZM59.2686 1.03563L41.2146 11.4126L42.2113 13.1465L60.2653 2.76961L59.2686 1.03563ZM42.5757 11.7739L42.2807 11.2706L40.5552 12.2819L40.8502 12.7852L42.5757 11.7739ZM41.9166 12.6431L60.2656 2.08851L59.2684 0.354853L40.9194 10.9094L41.9166 12.6431ZM59.2684 2.08851L77.6174 12.6431L78.6146 10.9094L60.2656 0.354853L59.2684 2.08851ZM77.2532 11.2706L76.9582 11.7739L78.6837 12.7852L78.9787 12.2819L77.2532 11.2706Z" fill="#75171E" mask="url(#path-13-inside-6_3618_945)"/>
<mask id="path-15-inside-7_3618_945" fill="white">
<path d="M95.1973 99.8099L94.9023 99.3065L110.7 90.2027V70.5146H111.29V90.558L111.142 90.632L95.1973 99.8099Z"/>
</mask>
<path d="M95.1973 99.8099L94.9023 99.3065L110.7 90.2027V70.5146H111.29V90.558L111.142 90.632L95.1973 99.8099Z" fill="#75171E"/>
<path d="M95.1973 99.8099L94.3346 100.316L94.8363 101.171L95.6962 100.677L95.1973 99.8099ZM94.9023 99.3065L94.403 98.4401L93.5302 98.9431L94.0396 99.8122L94.9023 99.3065ZM110.7 90.2027L111.199 91.0691L111.7 90.7806V90.2027H110.7ZM110.7 70.5146V69.5146H109.7V70.5146H110.7ZM111.29 70.5146H112.29V69.5146H111.29V70.5146ZM111.29 90.558L111.738 91.4517L112.29 91.175V90.558H111.29ZM111.142 90.632L110.694 89.7382L110.668 89.751L110.643 89.7653L111.142 90.632ZM96.0601 99.3042L95.7651 98.8009L94.0396 99.8122L94.3346 100.316L96.0601 99.3042ZM95.4017 100.173L111.199 91.0691L110.2 89.3363L94.403 98.4401L95.4017 100.173ZM111.7 90.2027V70.5146H109.7V90.2027H111.7ZM110.7 71.5146H111.29V69.5146H110.7V71.5146ZM110.29 70.5146V90.558H112.29V70.5146H110.29ZM110.841 89.6642L110.694 89.7382L111.591 91.5258L111.738 91.4517L110.841 89.6642ZM110.643 89.7653L94.6985 98.9432L95.6962 100.677L111.641 91.4987L110.643 89.7653Z" fill="#75171E" mask="url(#path-15-inside-7_3618_945)"/>
<path d="M118.531 60.7748L89.0312 111.682H30.0312L0.53125 60.7748L5.63475 51.9522L30.0312 9.86719H89.0312L118.531 60.7748Z" fill="#B33636"/>
<path d="M66.7142 85.7469H57.997C57.289 85.7469 56.8317 85.1696 56.8317 84.4442V55.5635C56.8317 48.31 54.4275 46.5633 49.088 46.5633C46.4182 46.5633 43.4977 46.6965 41.477 46.9482V84.459C41.5065 85.1548 40.9607 85.7321 40.2822 85.7469C40.2675 85.7469 40.2527 85.7469 40.238 85.7469H31.5945C30.9012 85.7469 30.3555 85.1844 30.3555 84.4886C30.3555 84.4738 30.3555 84.459 30.3555 84.4442V42.152C30.3555 39.2358 31.1372 38.5252 33.6742 38.1403C37.1257 37.6222 44.5302 37.0449 47.849 37.0449C60.4602 37.0449 67.9385 40.5384 67.9385 55.5783V84.4738C67.968 85.1696 67.4222 85.7469 66.7437 85.7617C66.7437 85.7469 66.729 85.7469 66.7142 85.7469Z" fill="white"/>
<path d="M87.3904 44.4173H78.9386C78.2306 44.4173 77.6406 43.84 77.6406 43.1146V37.0898C77.6406 36.3792 78.2306 35.7871 78.9386 35.7871H87.3904C88.0984 35.7871 88.6884 36.3644 88.6884 37.0898V43.1146C88.6884 43.84 88.1131 44.4173 87.3904 44.4173ZM87.1249 85.7473H79.1894C78.4814 85.7473 77.8914 85.17 77.8914 84.4447V49.924C77.8914 49.2135 78.4814 48.6213 79.1894 48.6213H87.1249C87.8329 48.6213 88.4229 49.1987 88.4229 49.924V84.4595C88.4229 85.17 87.8476 85.7473 87.1249 85.7473Z" fill="white"/>
<path d="M44.0127 107.715C43.6292 107.804 43.2309 107.863 42.8474 107.863C41.9477 107.863 41.4609 107.345 41.4609 106.457V106.027C41.4609 105.139 41.9477 104.621 42.8474 104.621C43.2457 104.621 43.6292 104.68 44.0127 104.769C44.1602 104.799 44.1897 104.843 44.1897 104.932V107.567C44.1897 107.641 44.1749 107.685 44.0127 107.715ZM43.3047 105.376C43.1572 105.361 43.0097 105.346 42.8474 105.346C42.4492 105.346 42.3459 105.628 42.3459 106.013V106.442C42.3459 106.827 42.4492 107.123 42.8474 107.123C42.9949 107.123 43.1572 107.108 43.3047 107.093V105.376Z" fill="white"/>
<path d="M51.0027 106.516H49.2327V106.531C49.2327 106.842 49.3654 107.123 49.8079 107.123C50.1619 107.123 50.6487 107.093 50.8699 107.078H50.8847C50.9437 107.078 50.9879 107.108 50.9879 107.167V107.582C50.9879 107.671 50.9732 107.7 50.8699 107.73C50.5012 107.819 50.1177 107.863 49.7342 107.863C49.0704 107.863 48.3477 107.508 48.3477 106.457V106.072C48.3477 105.184 48.8639 104.621 49.7489 104.621C50.6487 104.621 51.1059 105.243 51.1059 106.072V106.397C51.1207 106.457 51.0764 106.516 51.0027 106.516ZM50.2504 105.939C50.2504 105.524 50.0587 105.332 49.7489 105.332C49.4392 105.332 49.2327 105.539 49.2327 105.939V105.968H50.2357V105.939H50.2504Z" fill="white"/>
<path d="M56.9333 105.317H56.181V107.685C56.181 107.745 56.122 107.804 56.063 107.804H55.3993C55.3403 107.804 55.2812 107.745 55.2812 107.685V104.429C55.2812 103.674 55.7975 103.496 56.358 103.496C56.5645 103.496 56.7562 103.511 56.9627 103.541C57.0217 103.555 57.0512 103.57 57.0512 103.6V104.059C57.0512 104.118 57.0365 104.147 56.9775 104.147H56.4023C56.2253 104.147 56.1958 104.251 56.1958 104.414V104.636H56.948C57.007 104.636 57.066 104.68 57.066 104.754V105.198C57.0365 105.272 56.9923 105.317 56.9333 105.317Z" fill="white"/>
<path d="M63.6598 106.516H61.9045V106.531C61.9045 106.842 62.0373 107.123 62.4798 107.123C62.8338 107.123 63.3205 107.093 63.5418 107.078H63.5565C63.6155 107.078 63.6598 107.108 63.6598 107.167V107.582C63.6598 107.671 63.645 107.7 63.5418 107.73C63.173 107.819 62.7895 107.863 62.406 107.863C61.7423 107.863 61.0195 107.508 61.0195 106.457V106.072C61.0195 105.184 61.5358 104.621 62.4208 104.621C63.3205 104.621 63.7778 105.243 63.7778 106.072V106.397C63.7778 106.457 63.7335 106.516 63.6598 106.516ZM62.9075 105.939C62.9075 105.524 62.7158 105.332 62.406 105.332C62.0963 105.332 61.8898 105.539 61.8898 105.939V105.968H62.8928V105.939H62.9075Z" fill="white"/>
<path d="M69.3223 107.863H69.2337C68.8797 107.863 67.9062 107.76 67.9062 106.472V104.784C67.9062 104.725 67.9505 104.666 68.0095 104.666H68.688C68.747 104.666 68.806 104.725 68.806 104.784V106.472C68.806 106.99 68.9682 107.109 69.2337 107.109H69.3075C69.573 107.109 69.7352 106.99 69.7352 106.472V104.784C69.7352 104.725 69.7795 104.666 69.8533 104.666H70.5317C70.5907 104.666 70.635 104.725 70.635 104.784V106.472C70.635 107.76 69.6615 107.863 69.3223 107.863Z" fill="white"/>
<path d="M76.2125 107.863C76.065 107.863 75.9027 107.848 75.7552 107.819V108.766C75.7552 108.825 75.711 108.87 75.6372 108.87H74.9735C74.9145 108.87 74.8555 108.825 74.8555 108.766V104.903C74.8555 104.814 74.8702 104.784 75.0325 104.74C75.416 104.651 75.8142 104.592 76.2125 104.592C77.1122 104.592 77.599 105.11 77.599 105.998V106.427C77.599 107.316 77.1417 107.863 76.2125 107.863ZM76.6992 106.013C76.6992 105.628 76.596 105.347 76.2125 105.347C76.065 105.347 75.9027 105.347 75.7552 105.376V107.094C75.9027 107.108 76.0502 107.123 76.2125 107.123C76.6107 107.123 76.6992 106.827 76.6992 106.442V106.013Z" fill="white"/>
<path d="M33.038 106.28H37.4925L36.8435 106.265H33.1707L6.8125 60.775L11.3702 52.885L33.1707 15.2705H85.8873L112.26 60.775L85.8873 106.265H81.4475" stroke="white" stroke-miterlimit="10"/>
</g>
<defs>
<clipPath id="clip0_3618_945">
<rect width="118" height="121" fill="white" transform="translate(0.5 0.15625)"/>
</clipPath>
</defs>
</svg>
