<svg width="119" height="122" viewBox="0 0 119 122" fill="none" xmlns="http://www.w3.org/2000/svg">
<g clip-path="url(#clip0_3618_819)">
<mask id="path-1-inside-1_3618_819" fill="white">
<path d="M8.36344 49.1545H7.77344V31.7461L25.1932 21.7393L25.4882 22.2426L8.36344 32.1014V49.1545Z"/>
</mask>
<path d="M8.36344 49.1545H7.77344V31.7461L25.1932 21.7393L25.4882 22.2426L8.36344 32.1014V49.1545Z" fill="#75171E"/>
<path d="M8.36344 49.1545V50.1545H9.36344V49.1545H8.36344ZM7.77344 49.1545H6.77344V50.1545H7.77344V49.1545ZM7.77344 31.7461L7.27532 30.879L6.77344 31.1673V31.7461H7.77344ZM25.1932 21.7393L26.0559 21.2336L25.5546 20.3784L24.6951 20.8721L25.1932 21.7393ZM25.4882 22.2426L25.9871 23.1092L26.8605 22.6064L26.3509 21.7369L25.4882 22.2426ZM8.36344 32.1014L7.86451 31.2347L7.36344 31.5232V32.1014H8.36344ZM8.36344 48.1545H7.77344V50.1545H8.36344V48.1545ZM8.77344 49.1545V31.7461H6.77344V49.1545H8.77344ZM8.27155 32.6132L25.6913 22.6064L24.6951 20.8721L7.27532 30.879L8.27155 32.6132ZM24.3305 22.2449L24.6255 22.7482L26.3509 21.7369L26.0559 21.2336L24.3305 22.2449ZM24.9893 21.3759L7.86451 31.2347L8.86237 32.968L25.9871 23.1092L24.9893 21.3759ZM7.36344 32.1014V49.1545H9.36344V32.1014H7.36344Z" fill="#75171E" mask="url(#path-1-inside-1_3618_819)"/>
<path d="M8.36344 49.1553H7.77344V51.7902H8.36344V49.1553Z" fill="#75171E"/>
<mask id="path-4-inside-2_3618_819" fill="white">
<path d="M23.8657 100.566L7.77344 91.3138V71.2705H8.36344V90.9585L24.1607 100.062L23.8657 100.566Z"/>
</mask>
<path d="M23.8657 100.566L7.77344 91.3138V71.2705H8.36344V90.9585L24.1607 100.062L23.8657 100.566Z" fill="#75171E"/>
<path d="M23.8657 100.566L23.3673 101.433L24.227 101.927L24.7284 101.071L23.8657 100.566ZM7.77344 91.3138H6.77344V91.8924L7.27501 92.1807L7.77344 91.3138ZM7.77344 71.2705V70.2705H6.77344V71.2705H7.77344ZM8.36344 71.2705H9.36344V70.2705H8.36344V71.2705ZM8.36344 90.9585H7.36344V91.5364L7.86412 91.825L8.36344 90.9585ZM24.1607 100.062L25.0234 100.568L25.5328 99.699L24.66 99.196L24.1607 100.062ZM24.3641 99.6988L8.27186 90.4469L7.27501 92.1807L23.3673 101.433L24.3641 99.6988ZM8.77344 91.3138V71.2705H6.77344V91.3138H8.77344ZM7.77344 72.2705H8.36344V70.2705H7.77344V72.2705ZM7.36344 71.2705V90.9585H9.36344V71.2705H7.36344ZM7.86412 91.825L23.6614 100.929L24.66 99.196L8.86275 90.0921L7.86412 91.825ZM23.298 99.5567L23.003 100.06L24.7284 101.071L25.0234 100.568L23.298 99.5567Z" fill="#75171E" mask="url(#path-4-inside-2_3618_819)"/>
<path d="M24.1449 100.058L23.8516 100.571L25.1697 101.329L25.463 100.816L24.1449 100.058Z" fill="#75171E"/>
<mask id="path-7-inside-3_3618_819" fill="white">
<path d="M59.2956 121.082L41.8906 111.061L42.1856 110.557L59.2956 120.401L77.3496 110.024L77.6446 110.528L59.2956 121.082Z"/>
</mask>
<path d="M59.2956 121.082L41.8906 111.061L42.1856 110.557L59.2956 120.401L77.3496 110.024L77.6446 110.528L59.2956 121.082Z" fill="#75171E"/>
<path d="M59.2956 121.082L58.7966 121.949L59.2954 122.236L59.7942 121.949L59.2956 121.082ZM41.8906 111.061L41.0279 110.555L40.5183 111.424L41.3916 111.927L41.8906 111.061ZM42.1856 110.557L42.6843 109.691L41.8245 109.196L41.3229 110.052L42.1856 110.557ZM59.2956 120.401L58.7969 121.268L59.2954 121.555L59.7939 121.268L59.2956 120.401ZM77.3496 110.024L78.2123 109.519L77.711 108.663L76.8513 109.157L77.3496 110.024ZM77.6446 110.528L78.1432 111.395L79.0172 110.892L78.5073 110.022L77.6446 110.528ZM59.7946 120.216L42.3896 110.194L41.3916 111.927L58.7966 121.949L59.7946 120.216ZM42.7534 111.566L43.0484 111.063L41.3229 110.052L41.0279 110.555L42.7534 111.566ZM41.6869 111.424L58.7969 121.268L59.7943 119.535L42.6843 109.691L41.6869 111.424ZM59.7939 121.268L77.8479 110.891L76.8513 109.157L58.7973 119.534L59.7939 121.268ZM76.4869 110.53L76.7819 111.033L78.5073 110.022L78.2123 109.519L76.4869 110.53ZM77.146 109.661L58.797 120.215L59.7942 121.949L78.1432 111.395L77.146 109.661Z" fill="#75171E" mask="url(#path-7-inside-3_3618_819)"/>
<mask id="path-9-inside-4_3618_819" fill="white">
<path d="M93.8848 101.321L93.5898 100.818L110.7 90.9591V73.0918H111.29V91.3143L111.142 91.3883L93.8848 101.321Z"/>
</mask>
<path d="M93.8848 101.321L93.5898 100.818L110.7 90.9591V73.0918H111.29V91.3143L111.142 91.3883L93.8848 101.321Z" fill="#75171E"/>
<path d="M93.8848 101.321L93.0221 101.827L93.5238 102.683L94.3837 102.188L93.8848 101.321ZM93.5898 100.818L93.0906 99.9514L92.2177 100.454L92.7271 101.324L93.5898 100.818ZM110.7 90.9591L111.199 91.8255L111.7 91.537V90.9591H110.7ZM110.7 73.0918V72.0918H109.7V73.0918H110.7ZM111.29 73.0918H112.29V72.0918H111.29V73.0918ZM111.29 91.3143L111.738 92.2081L112.29 91.9314V91.3143H111.29ZM111.142 91.3883L110.694 90.4946L110.668 90.5074L110.644 90.5217L111.142 91.3883ZM94.7476 100.816L94.4526 100.312L92.7271 101.324L93.0221 101.827L94.7476 100.816ZM94.0891 101.684L111.199 91.8255L110.201 90.0926L93.0906 99.9514L94.0891 101.684ZM111.7 90.9591V73.0918H109.7V90.9591H111.7ZM110.7 74.0918H111.29V72.0918H110.7V74.0918ZM110.29 73.0918V91.3143H112.29V73.0918H110.29ZM110.841 90.4205L110.694 90.4946L111.591 92.2821L111.738 92.2081L110.841 90.4205ZM110.644 90.5217L93.386 100.454L94.3837 102.188L111.641 92.255L110.644 90.5217Z" fill="#75171E" mask="url(#path-9-inside-4_3618_819)"/>
<mask id="path-11-inside-5_3618_819" fill="white">
<path d="M111.29 51.7894H110.7V32.1014L93.5898 22.2426L93.8848 21.7393L111.29 31.7461V51.7894Z"/>
</mask>
<path d="M111.29 51.7894H110.7V32.1014L93.5898 22.2426L93.8848 21.7393L111.29 31.7461V51.7894Z" fill="#75171E"/>
<path d="M111.29 51.7894V52.7894H112.29V51.7894H111.29ZM110.7 51.7894H109.7V52.7894H110.7V51.7894ZM110.7 32.1014H111.7V31.5235L111.199 31.2349L110.7 32.1014ZM93.5898 22.2426L92.7271 21.7369L92.2177 22.606L93.0906 23.109L93.5898 22.2426ZM93.8848 21.7393L94.3833 20.8723L93.5236 20.378L93.0221 21.2336L93.8848 21.7393ZM111.29 31.7461H112.29V31.1676L111.788 30.8792L111.29 31.7461ZM111.29 50.7894H110.7V52.7894H111.29V50.7894ZM111.7 51.7894V32.1014H109.7V51.7894H111.7ZM111.199 31.2349L94.0891 21.3761L93.0906 23.109L110.201 32.9678L111.199 31.2349ZM94.4526 22.7482L94.7476 22.2449L93.0221 21.2336L92.7271 21.7369L94.4526 22.7482ZM93.3864 22.6062L110.791 32.613L111.788 30.8792L94.3833 20.8723L93.3864 22.6062ZM110.29 31.7461V51.7894H112.29V31.7461H110.29Z" fill="#75171E" mask="url(#path-11-inside-5_3618_819)"/>
<mask id="path-13-inside-6_3618_819" fill="white">
<path d="M77.821 13.0354L59.767 2.65848L41.713 13.0354L41.418 12.5321L59.767 1.97754L78.116 12.5321L77.821 13.0354Z"/>
</mask>
<path d="M77.821 13.0354L59.767 2.65848L41.713 13.0354L41.418 12.5321L59.767 1.97754L78.116 12.5321L77.821 13.0354Z" fill="#75171E"/>
<path d="M77.821 13.0354L77.3227 13.9024L78.1823 14.3965L78.6837 13.5411L77.821 13.0354ZM59.767 2.65848L60.2653 1.79149L59.767 1.50507L59.2686 1.79149L59.767 2.65848ZM41.713 13.0354L40.8502 13.5411L41.3516 14.3965L42.2113 13.9024L41.713 13.0354ZM41.418 12.5321L40.9194 11.6653L40.0454 12.168L40.5552 13.0378L41.418 12.5321ZM59.767 1.97754L60.2656 1.11071L59.767 0.823906L59.2684 1.11071L59.767 1.97754ZM78.116 12.5321L78.9787 13.0378L79.4885 12.168L78.6146 11.6653L78.116 12.5321ZM78.3193 12.1684L60.2653 1.79149L59.2686 3.52547L77.3227 13.9024L78.3193 12.1684ZM59.2686 1.79149L41.2146 12.1684L42.2113 13.9024L60.2653 3.52547L59.2686 1.79149ZM42.5757 12.5297L42.2807 12.0264L40.5552 13.0378L40.8502 13.5411L42.5757 12.5297ZM41.9166 13.3989L60.2656 2.84437L59.2684 1.11071L40.9194 11.6653L41.9166 13.3989ZM59.2684 2.84437L77.6174 13.3989L78.6146 11.6653L60.2656 1.11071L59.2684 2.84437ZM77.2532 12.0264L76.9582 12.5297L78.6837 13.5411L78.9787 13.0378L77.2532 12.0264Z" fill="#75171E" mask="url(#path-13-inside-6_3618_819)"/>
<mask id="path-15-inside-7_3618_819" fill="white">
<path d="M95.1973 100.566L94.9023 100.062L110.7 90.9585V71.2705H111.29V91.3138L111.142 91.3878L95.1973 100.566Z"/>
</mask>
<path d="M95.1973 100.566L94.9023 100.062L110.7 90.9585V71.2705H111.29V91.3138L111.142 91.3878L95.1973 100.566Z" fill="#75171E"/>
<path d="M95.1973 100.566L94.3346 101.071L94.8363 101.927L95.6962 101.432L95.1973 100.566ZM94.9023 100.062L94.403 99.196L93.5302 99.699L94.0396 100.568L94.9023 100.062ZM110.7 90.9585L111.199 91.825L111.7 91.5364V90.9585H110.7ZM110.7 71.2705V70.2705H109.7V71.2705H110.7ZM111.29 71.2705H112.29V70.2705H111.29V71.2705ZM111.29 91.3138L111.738 92.2076L112.29 91.9309V91.3138H111.29ZM111.142 91.3878L110.694 90.494L110.668 90.5069L110.643 90.5212L111.142 91.3878ZM96.0601 100.06L95.7651 99.5567L94.0396 100.568L94.3346 101.071L96.0601 100.06ZM95.4017 100.929L111.199 91.825L110.2 90.0921L94.403 99.196L95.4017 100.929ZM111.7 90.9585V71.2705H109.7V90.9585H111.7ZM110.7 72.2705H111.29V70.2705H110.7V72.2705ZM110.29 71.2705V91.3138H112.29V71.2705H110.29ZM110.841 90.42L110.694 90.494L111.591 92.2816L111.738 92.2076L110.841 90.42ZM110.643 90.5212L94.6985 99.699L95.6962 101.432L111.641 92.2545L110.643 90.5212Z" fill="#75171E" mask="url(#path-15-inside-7_3618_819)"/>
<path d="M118.531 61.5307L89.0312 112.438H30.0312L0.53125 61.5307L5.63475 52.7081L30.0312 10.623H89.0312L118.531 61.5307Z" fill="#B33636"/>
<path d="M66.7142 86.5028H57.997C57.289 86.5028 56.8317 85.9254 56.8317 85.2001V56.3194C56.8317 49.0659 54.4275 47.3191 49.088 47.3191C46.4182 47.3191 43.4977 47.4524 41.477 47.704V85.2149C41.5065 85.9106 40.9607 86.488 40.2822 86.5028C40.2675 86.5028 40.2527 86.5028 40.238 86.5028H31.5945C30.9012 86.5028 30.3555 85.9402 30.3555 85.2445C30.3555 85.2297 30.3555 85.2149 30.3555 85.2001V42.9078C30.3555 39.9916 31.1372 39.2811 33.6742 38.8962C37.1257 38.3781 44.5302 37.8008 47.849 37.8008C60.4602 37.8008 67.9385 41.2943 67.9385 56.3342V85.2297C67.968 85.9254 67.4222 86.5028 66.7437 86.5176C66.7437 86.5028 66.729 86.5028 66.7142 86.5028Z" fill="white"/>
<path d="M87.3904 45.1731H78.9386C78.2306 45.1731 77.6406 44.5958 77.6406 43.8705V37.8456C77.6406 37.1351 78.2306 36.543 78.9386 36.543H87.3904C88.0984 36.543 88.6884 37.1203 88.6884 37.8456V43.8705C88.6884 44.5958 88.1131 45.1731 87.3904 45.1731ZM87.1249 86.5032H79.1894C78.4814 86.5032 77.8914 85.9259 77.8914 85.2005V50.6799C77.8914 49.9693 78.4814 49.3772 79.1894 49.3772H87.1249C87.8329 49.3772 88.4229 49.9545 88.4229 50.6799V85.2153C88.4229 85.9259 87.8476 86.5032 87.1249 86.5032Z" fill="white"/>
<path d="M44.0127 108.471C43.6292 108.56 43.2309 108.619 42.8474 108.619C41.9477 108.619 41.4609 108.101 41.4609 107.213V106.783C41.4609 105.895 41.9477 105.377 42.8474 105.377C43.2457 105.377 43.6292 105.436 44.0127 105.525C44.1602 105.555 44.1897 105.599 44.1897 105.688V108.323C44.1897 108.397 44.1749 108.441 44.0127 108.471ZM43.3047 106.132C43.1572 106.117 43.0097 106.102 42.8474 106.102C42.4492 106.102 42.3459 106.384 42.3459 106.768V107.198C42.3459 107.583 42.4492 107.879 42.8474 107.879C42.9949 107.879 43.1572 107.864 43.3047 107.849V106.132Z" fill="white"/>
<path d="M51.0027 107.272H49.2327V107.287C49.2327 107.597 49.3654 107.879 49.8079 107.879C50.1619 107.879 50.6487 107.849 50.8699 107.834H50.8847C50.9437 107.834 50.9879 107.864 50.9879 107.923V108.338C50.9879 108.426 50.9732 108.456 50.8699 108.486C50.5012 108.574 50.1177 108.619 49.7342 108.619C49.0704 108.619 48.3477 108.264 48.3477 107.213V106.828C48.3477 105.939 48.8639 105.377 49.7489 105.377C50.6487 105.377 51.1059 105.999 51.1059 106.828V107.153C51.1207 107.213 51.0764 107.272 51.0027 107.272ZM50.2504 106.694C50.2504 106.28 50.0587 106.087 49.7489 106.087C49.4392 106.087 49.2327 106.295 49.2327 106.694V106.724H50.2357V106.694H50.2504Z" fill="white"/>
<path d="M56.9333 106.073H56.181V108.441C56.181 108.5 56.122 108.56 56.063 108.56H55.3993C55.3403 108.56 55.2812 108.5 55.2812 108.441V105.185C55.2812 104.43 55.7975 104.252 56.358 104.252C56.5645 104.252 56.7562 104.267 56.9627 104.296C57.0217 104.311 57.0512 104.326 57.0512 104.356V104.814C57.0512 104.874 57.0365 104.903 56.9775 104.903H56.4023C56.2253 104.903 56.1958 105.007 56.1958 105.17V105.392H56.948C57.007 105.392 57.066 105.436 57.066 105.51V105.954C57.0365 106.028 56.9923 106.073 56.9333 106.073Z" fill="white"/>
<path d="M63.6598 107.272H61.9045V107.287C61.9045 107.597 62.0373 107.879 62.4798 107.879C62.8338 107.879 63.3205 107.849 63.5418 107.834H63.5565C63.6155 107.834 63.6598 107.864 63.6598 107.923V108.338C63.6598 108.426 63.645 108.456 63.5418 108.486C63.173 108.574 62.7895 108.619 62.406 108.619C61.7423 108.619 61.0195 108.264 61.0195 107.213V106.828C61.0195 105.939 61.5358 105.377 62.4208 105.377C63.3205 105.377 63.7778 105.999 63.7778 106.828V107.153C63.7778 107.213 63.7335 107.272 63.6598 107.272ZM62.9075 106.694C62.9075 106.28 62.7158 106.087 62.406 106.087C62.0963 106.087 61.8898 106.295 61.8898 106.694V106.724H62.8928V106.694H62.9075Z" fill="white"/>
<path d="M69.3223 108.619H69.2337C68.8797 108.619 67.9062 108.516 67.9062 107.228V105.54C67.9062 105.481 67.9505 105.422 68.0095 105.422H68.688C68.747 105.422 68.806 105.481 68.806 105.54V107.228C68.806 107.746 68.9682 107.864 69.2337 107.864H69.3075C69.573 107.864 69.7352 107.746 69.7352 107.228V105.54C69.7352 105.481 69.7795 105.422 69.8533 105.422H70.5317C70.5907 105.422 70.635 105.481 70.635 105.54V107.228C70.635 108.516 69.6615 108.619 69.3223 108.619Z" fill="white"/>
<path d="M76.2125 108.619C76.065 108.619 75.9027 108.604 75.7552 108.575V109.522C75.7552 109.581 75.711 109.626 75.6372 109.626H74.9735C74.9145 109.626 74.8555 109.581 74.8555 109.522V105.659C74.8555 105.57 74.8702 105.54 75.0325 105.496C75.416 105.407 75.8142 105.348 76.2125 105.348C77.1122 105.348 77.599 105.866 77.599 106.754V107.183C77.599 108.071 77.1417 108.619 76.2125 108.619ZM76.6992 106.769C76.6992 106.384 76.596 106.103 76.2125 106.103C76.065 106.103 75.9027 106.103 75.7552 106.132V107.849C75.9027 107.864 76.0502 107.879 76.2125 107.879C76.6107 107.879 76.6992 107.583 76.6992 107.198V106.769Z" fill="white"/>
<path d="M33.038 107.035H37.4925L36.8435 107.021H33.1707L6.8125 61.5309L11.3702 53.6409L33.1707 16.0264H85.8873L112.26 61.5309L85.8873 107.021H81.4475" stroke="white" stroke-miterlimit="10"/>
</g>
<defs>
<clipPath id="clip0_3618_819">
<rect width="118" height="121" fill="white" transform="translate(0.5 0.912109)"/>
</clipPath>
</defs>
</svg>
